<?xml version="1.0" encoding="UTF-8"?>
<svg id="Layer_2" data-name="Layer 2" xmlns="http://www.w3.org/2000/svg" viewBox="0 0 124.6 150.21">
  <defs>
    <style>
      .cls-1 { fill: #acb6dd; }
      .cls-2 { fill: none; stroke: #acb6dd; stroke-width: 3; stroke-linejoin: round; stroke-linecap: round; }
      .cls-3 { fill: none; stroke: #acb6dd; stroke-width: 2; stroke-linejoin: round; stroke-linecap: round; }
    </style>
  </defs>
  <g id="Pipe_Sensor_Temp">
    <!-- inline pipe section (real pipe geometry, bore 21) -->
    <path class="cls-1" transform="translate(0,110)" d="M124.1,0h-11.53v2.5s0,4.11,0,4.11H12.03V2.5s0-2.5,0-2.5H0v40.21h12.03v-6.6h100.54v4.1s0,2.5,0,2.5h12.03V0h-.5ZM1,3h8.03v4.12H1V3ZM1,8.12h8.03v23.98H1V8.12ZM9.03,37.21H1v-4.12h8.03v4.12ZM114.57,30.61H10.03V9.61h104.54v21ZM123.6,37.21h-8.03v-4.12h8.03v4.12ZM123.6,32.09h-8.03V8.12h8.03v23.98ZM123.6,7.12h-8.03V3h8.03v4.12Z"/>
    <!-- thermowell boss into the pipe -->
    <path class="cls-2" d="M56.3,118 L58.3,104 H66.3 L68.3,118"/>
    <!-- stem -->
    <rect class="cls-2" x="59.3" y="74" width="6" height="32"/>
    <!-- transmitter head -->
    <rect class="cls-2" x="42.3" y="32" width="40" height="44" rx="6"/>
    <circle class="cls-3" cx="62.3" cy="54" r="11"/>
    <circle class="cls-1" cx="62.3" cy="54" r="2.5"/>
    <!-- conduit cap -->
    <rect class="cls-2" x="55.3" y="18" width="14" height="16" rx="2"/>
  </g>
</svg>