<?xml version="1.0" encoding="UTF-8"?>
<svg id="Layer_2" data-name="Layer 2" xmlns="http://www.w3.org/2000/svg" viewBox="0 0 400 240">
  <defs><style>
    .cls-1 { fill: #acb6dd; }
    .cls-2 { fill: none; stroke: #acb6dd; stroke-width: 3; stroke-linejoin: round; stroke-linecap: round; }
    .cls-3 { fill: none; stroke: #acb6dd; stroke-width: 1.5; stroke-linejoin: round; stroke-linecap: round; }
  </style></defs>
  <g id="Chiller_AirCooled_2pipe">
    <rect class="cls-2" x="28" y="78" width="344" height="116" rx="3"/>
    <path class="cls-2" d="M54,88 L92,186 L130,88"/>
    <line class="cls-3" x1="57.9" y1="98" x2="126.1" y2="98"/>
    <line class="cls-3" x1="64.1" y1="114" x2="119.9" y2="114"/>
    <line class="cls-3" x1="70.3" y1="130" x2="113.7" y2="130"/>
    <line class="cls-3" x1="76.5" y1="146" x2="107.5" y2="146"/>
    <line class="cls-3" x1="82.7" y1="162" x2="101.3" y2="162"/>
    <line class="cls-3" x1="88.9" y1="178" x2="95.1" y2="178"/>
    <path class="cls-2" d="M130,88 L168,186 L206,88"/>
    <line class="cls-3" x1="133.9" y1="98" x2="202.1" y2="98"/>
    <line class="cls-3" x1="140.1" y1="114" x2="195.9" y2="114"/>
    <line class="cls-3" x1="146.3" y1="130" x2="189.7" y2="130"/>
    <line class="cls-3" x1="152.5" y1="146" x2="183.5" y2="146"/>
    <line class="cls-3" x1="158.7" y1="162" x2="177.3" y2="162"/>
    <line class="cls-3" x1="164.9" y1="178" x2="171.1" y2="178"/>
    <path class="cls-2" d="M206,88 L244,186 L282,88"/>
    <line class="cls-3" x1="209.9" y1="98" x2="278.1" y2="98"/>
    <line class="cls-3" x1="216.1" y1="114" x2="271.9" y2="114"/>
    <line class="cls-3" x1="222.3" y1="130" x2="265.7" y2="130"/>
    <line class="cls-3" x1="228.5" y1="146" x2="259.5" y2="146"/>
    <line class="cls-3" x1="234.7" y1="162" x2="253.3" y2="162"/>
    <line class="cls-3" x1="240.9" y1="178" x2="247.1" y2="178"/>
    <path class="cls-2" d="M282,88 L320,186 L358,88"/>
    <line class="cls-3" x1="285.9" y1="98" x2="354.1" y2="98"/>
    <line class="cls-3" x1="292.1" y1="114" x2="347.9" y2="114"/>
    <line class="cls-3" x1="298.3" y1="130" x2="341.7" y2="130"/>
    <line class="cls-3" x1="304.5" y1="146" x2="335.5" y2="146"/>
    <line class="cls-3" x1="310.7" y1="162" x2="329.3" y2="162"/>
    <line class="cls-3" x1="316.9" y1="178" x2="323.1" y2="178"/>
    <rect class="cls-2" x="59" y="64" width="66" height="15" rx="2"/>
    <polygon class="cls-1" points="92,38 83,50 88.5,50 88.5,60 95.5,60 95.5,50 101,50"/>
    <rect class="cls-2" x="135" y="64" width="66" height="15" rx="2"/>
    <polygon class="cls-1" points="168,38 159,50 164.5,50 164.5,60 171.5,60 171.5,50 177,50"/>
    <rect class="cls-2" x="211" y="64" width="66" height="15" rx="2"/>
    <polygon class="cls-1" points="244,38 235,50 240.5,50 240.5,60 247.5,60 247.5,50 253,50"/>
    <rect class="cls-2" x="287" y="64" width="66" height="15" rx="2"/>
    <polygon class="cls-1" points="320,38 311,50 316.5,50 316.5,60 323.5,60 323.5,50 329,50"/>
    <rect class="cls-2" x="8" y="118" width="20" height="66" rx="2"/>
    <rect class="cls-3" x="12" y="124" width="12" height="16" rx="1.5"/>
    <circle class="cls-1" cx="18" cy="160" r="2"/>
    <rect class="cls-3" x="60" y="194" width="20" height="10"/>
    <rect class="cls-3" x="320" y="194" width="20" height="10"/>
    <line class="cls-2" x1="118" y1="194" x2="118" y2="222"/>
    <line class="cls-2" x1="142" y1="194" x2="142" y2="222"/>
    <rect class="cls-1" x="113" y="221" width="34" height="6"/>
    <line class="cls-2" x1="270" y1="194" x2="270" y2="222"/>
    <line class="cls-2" x1="294" y1="194" x2="294" y2="222"/>
    <rect class="cls-1" x="265" y="221" width="34" height="6"/>
  </g>
</svg>
