<?xml version="1.0" encoding="UTF-8" standalone="no"?>
<svg
   id="Layer_2"
   data-name="Layer 2"
   viewBox="0 0 121.23 125.07"
   version="1.1"
   sodipodi:docname="Duct_Fan_Left.svg"
   inkscape:version="1.4.3 (0d15f75, 2025-12-25)"
   xmlns:inkscape="http://www.inkscape.org/namespaces/inkscape"
   xmlns:sodipodi="http://sodipodi.sourceforge.net/DTD/sodipodi-0.dtd"
   xmlns="http://www.w3.org/2000/svg"
   xmlns:svg="http://www.w3.org/2000/svg">
  <sodipodi:namedview
     id="namedview4"
     pagecolor="#ffffff"
     bordercolor="#000000"
     borderopacity="0.25"
     inkscape:showpageshadow="2"
     inkscape:pageopacity="0.0"
     inkscape:pagecheckerboard="0"
     inkscape:deskcolor="#d1d1d1"
     inkscape:zoom="6.4523867"
     inkscape:cx="60.675223"
     inkscape:cy="62.535"
     inkscape:window-width="2560"
     inkscape:window-height="1369"
     inkscape:window-x="1912"
     inkscape:window-y="-8"
     inkscape:window-maximized="1"
     inkscape:current-layer="Layer_2" />
  <defs
     id="defs1">
    <style
       id="style1">
      .cls-1 {
        fill: #acb6dd;
      }
    </style>
  </defs>
  <g
     id="Duct_Fan"
     transform="matrix(-1,0,0,1,121.22,0)">
    <g
       id="g4">
      <path
         class="cls-1"
         d="m 52.82,65.64 c 0,2.89 2.35,5.25 5.25,5.25 2.9,0 5.25,-2.35 5.25,-5.25 0,-2.9 -2.35,-5.25 -5.25,-5.25 -2.9,0 -5.25,2.35 -5.25,5.25 z m 5.25,-4.25 c 2.34,0 4.25,1.9 4.25,4.25 0,2.35 -1.9,4.25 -4.25,4.25 -2.35,0 -4.25,-1.9 -4.25,-4.25 0,-2.35 1.9,-4.25 4.25,-4.25 z"
         id="path1" />
      <path
         class="cls-1"
         d="m 27.85,63.57 c -2.6,1.18 -5.06,2.82 -7.21,5.11 l -0.04,4.74 c 1.98,-3 4.47,-5.1 7.2,-6.57 0.05,1.36 0.2,2.71 0.43,4.02 -2.25,1.76 -4.24,3.95 -5.77,6.68 l 1.1,4.61 c 1.21,-3.38 3.12,-6.02 5.41,-8.1 0.38,1.3 0.84,2.57 1.38,3.8 -0.72,0.92 -1.38,1.89 -1.96,2.93 l -5.71,3.33 c -0.36,0.32 -0.86,1.14 -0.39,2.22 0.21,0.35 0.75,0.86 1.52,0.86 0.22,0 0.45,-0.04 0.7,-0.14 l 1.94,-1.13 2.06,4.01 c 0.23,-2.28 0.82,-4.32 1.66,-6.17 l 2.59,-1.5 c 0.42,0.64 0.86,1.26 1.33,1.86 -1.17,2.61 -1.92,5.47 -2.01,8.61 l 3.11,3.57 c -0.5,-3.57 -0.04,-6.8 1.04,-9.71 0.93,0.97 1.93,1.88 2.98,2.72 -0.51,2.81 -0.56,5.78 0.11,8.85 l 3.88,2.72 c -1.34,-3.34 -1.66,-6.58 -1.32,-9.67 1.13,0.72 2.32,1.37 3.55,1.94 0.18,2.85 0.84,5.73 2.22,8.55 l 4.41,1.71 c -2.1,-2.92 -3.19,-5.99 -3.59,-9.06 1.27,0.43 2.57,0.77 3.91,1.03 0.85,2.72 2.19,5.36 4.2,7.77 l 4.7,0.61 c -2.74,-2.33 -4.53,-5.05 -5.66,-7.94 0.81,0.07 1.62,0.11 2.45,0.11 0.54,0 1.07,-0.01 1.6,-0.04 1.48,2.44 3.41,4.68 5.94,6.53 l 4.71,-0.53 c -3.21,-1.61 -5.6,-3.82 -7.39,-6.35 1.35,-0.22 2.67,-0.52 3.95,-0.92 2.02,2.01 4.42,3.73 7.31,4.93 l 4.44,-1.64 c -3.5,-0.79 -6.35,-2.37 -8.69,-4.4 1.24,-0.53 2.44,-1.15 3.6,-1.83 2.45,1.48 5.2,2.57 8.3,3.03 l 3.92,-2.66 c -3.6,0.07 -6.74,-0.78 -9.5,-2.19 1.08,-0.81 2.1,-1.69 3.06,-2.64 2.73,0.85 5.67,1.25 8.79,0.96 l 1.86,-2.06 1.68,0.98 c 0.22,0.08 0.43,0.12 0.62,0.12 0.75,0 1.31,-0.54 1.56,-0.95 0.44,-1.01 -0.06,-1.83 -0.5,-2.21 l -4.71,-2.74 c 1.33,-0.2 2.67,-0.51 4.02,-0.98 l 2.23,-4.18 c -3.15,1.73 -6.33,2.44 -9.42,2.47 0.58,-1.21 1.07,-2.47 1.49,-3.76 2.81,-0.52 5.59,-1.53 8.21,-3.23 l 1.17,-4.59 c -2.64,2.43 -5.55,3.88 -8.55,4.65 0.27,-1.3 0.44,-2.64 0.53,-4 2.6,-1.18 5.06,-2.82 7.21,-5.11 l 0.04,-4.74 c -1.98,3 -4.47,5.1 -7.2,6.57 -0.05,-1.36 -0.2,-2.71 -0.43,-4.02 2.25,-1.76 4.24,-3.95 5.77,-6.68 l -1.1,-4.61 c -1.21,3.38 -3.12,6.02 -5.42,8.1 -0.38,-1.3 -0.84,-2.57 -1.38,-3.8 1.76,-2.25 3.17,-4.85 4.01,-7.87 l -2.17,-4.21 c -0.36,3.58 -1.59,6.6 -3.32,9.17 -0.68,-1.17 -1.43,-2.29 -2.25,-3.35 1.17,-2.61 1.92,-5.47 2.01,-8.62 l -3.11,-3.57 c 0.5,3.57 0.04,6.8 -1.04,9.71 -0.93,-0.97 -1.93,-1.88 -2.98,-2.72 0.51,-2.81 0.56,-5.78 -0.11,-8.85 l -3.88,-2.72 c 1.34,3.34 1.66,6.58 1.32,9.67 -1.13,-0.72 -2.32,-1.37 -3.55,-1.94 -0.18,-2.85 -0.84,-5.73 -2.22,-8.55 l -4.41,-1.71 c 2.1,2.92 3.19,5.99 3.59,9.06 -1.27,-0.43 -2.57,-0.77 -3.91,-1.03 -0.82,-2.61 -2.09,-5.14 -3.96,-7.47 V 25.95 C 59.62,24.82 58.59,24.49 58,24.48 c -1.1,0.13 -1.55,0.97 -1.66,1.54 v 1.67 c 0,0 -1.47,-0.19 -1.47,-0.19 0.53,0.45 1.01,0.91 1.47,1.39 v 6.24 c -1.47,-2.34 -3.35,-4.5 -5.79,-6.29 l -4.71,0.53 c 3.21,1.61 5.6,3.82 7.39,6.35 -1.35,0.22 -2.67,0.52 -3.95,0.92 -2.02,-2.01 -4.42,-3.73 -7.31,-4.93 l -4.44,1.64 c 3.5,0.79 6.35,2.37 8.69,4.4 -1.24,0.53 -2.44,1.15 -3.6,1.83 -2.45,-1.48 -5.2,-2.57 -8.3,-3.03 l -3.92,2.66 c 3.6,-0.07 6.74,0.78 9.5,2.19 -1.08,0.81 -2.1,1.69 -3.06,2.64 -2.73,-0.85 -5.67,-1.25 -8.79,-0.96 l -3.17,3.52 c 3.48,-0.93 6.74,-0.86 9.75,-0.14 -0.85,1.04 -1.64,2.14 -2.35,3.29 -2.85,-0.17 -5.79,0.14 -8.76,1.17 l -2.23,4.18 c 3.15,-1.73 6.33,-2.44 9.42,-2.47 -0.58,1.21 -1.07,2.47 -1.49,3.76 -2.81,0.52 -5.58,1.53 -8.21,3.23 l -1.17,4.59 c 2.64,-2.43 5.55,-3.88 8.55,-4.65 -0.27,1.3 -0.44,2.64 -0.53,4 z m 36.66,2.07 c 0,0.71 -0.12,1.42 -0.36,2.12 v 0 c 0,0 0,0 0,0 -0.26,0.75 -0.64,1.43 -1.14,2.02 v 0 c -1.23,1.47 -3.03,2.3 -4.93,2.3 -1.9,0 -3.73,-0.85 -4.96,-2.33 -0.49,-0.59 -0.88,-1.28 -1.13,-2.02 v 0 c -0.23,-0.68 -0.35,-1.39 -0.35,-2.09 0,-3.1 2.21,-5.77 5.27,-6.33 0.8,-0.15 1.51,-0.15 2.32,0 3.07,0.55 5.29,3.21 5.29,6.33 z m 0.35,3 0.1,0.06 -0.38,0.63 0.44,-0.59 14.73,8.58 L 79,78.6 64.11,69.94 c 0.29,-0.41 0.54,-0.84 0.74,-1.3 z M 51.25,68.61 c 0.2,0.46 0.45,0.9 0.73,1.31 L 37.05,78.61 36.3,77.32 Z M 57.3,58.24 V 41.13 h 1.5 v 17.11 c 0,0 -0.03,0 -0.04,0 -0.24,-0.02 -0.47,-0.04 -0.7,-0.04 0,0 0,0 0,0 -0.24,0 -0.48,0.02 -0.72,0.04 0,0 -0.02,0 -0.03,0 z m 1.5,-18.11 h -1.48 v -3.76 c 0.25,0 0.5,-0.02 0.75,-0.02 0.25,0 0.49,0.01 0.74,0.02 v 3.76 z m -2.5,18.29 c -3.31,0.8 -5.68,3.77 -5.68,7.22 0,0.67 0.12,1.34 0.3,2 l -0.03,0.02 v 0 c 0,0 -19.02,11.09 -19.02,11.09 -1.98,-3.95 -3.11,-8.4 -3.11,-13.11 0,-15.57 12.21,-28.33 27.55,-29.24 l -0.02,22.02 z m -20.11,20.69 -3.1,1.81 C 32.83,80.5 32.58,80.07 32.34,79.64 l 3.1,-1.81 0.75,1.29 z M 24.08,86.16 C 23.53,86.37 23.2,85.9 23.17,85.87 22.95,85.35 23.22,85 23.31,84.89 l 8.16,-4.75 c 0.24,0.43 0.49,0.86 0.75,1.28 z M 33.62,81.75 52.63,70.7 c 1.41,1.51 3.36,2.38 5.43,2.38 2.07,0 4,-0.86 5.41,-2.35 L 82.49,81.78 C 77.24,89.7 68.25,94.93 58.06,94.93 47.87,94.93 38.86,89.69 33.62,81.75 Z m 46.26,-2.64 0.75,-1.28 3.15,1.83 c -0.24,0.43 -0.49,0.86 -0.75,1.28 z m 1.63,5.69 c 0.66,-0.81 1.28,-1.65 1.85,-2.52 l 5.03,2.92 c -2.41,0.29 -4.71,0.11 -6.88,-0.4 z m 11.41,1 c -0.06,0.1 -0.4,0.57 -0.87,0.39 l -8.16,-4.75 c 0.26,-0.42 0.51,-0.85 0.75,-1.28 l 8.08,4.7 c 0,0 0.43,0.39 0.2,0.94 z M 87.36,65.64 c 0,4.72 -1.13,9.18 -3.12,13.14 L 65.19,67.68 c 0.19,-0.67 0.32,-1.35 0.32,-2.04 0,-3.46 -2.38,-6.43 -5.71,-7.22 V 36.4 c 15.34,0.9 27.56,13.67 27.56,29.24 z M 60.51,35.45 C 60.27,35.43 60.04,35.41 59.8,35.4 v -1.56 c 0.26,0.53 0.5,1.07 0.71,1.61 z m -2.49,-9.97 c 0.11,0 0.69,0.06 0.78,0.55 v 9.33 c -0.25,0 -0.49,-0.02 -0.74,-0.02 -0.25,0 -0.5,0.01 -0.75,0.02 v -9.27 c 0.05,-0.14 0.22,-0.55 0.7,-0.61 z"
         id="path2" />
      <path
         class="cls-1"
         d="m 58.07,68.97 c 1.84,0 3.33,-1.5 3.33,-3.33 0,-1.83 -1.5,-3.33 -3.33,-3.33 -1.83,0 -3.33,1.5 -3.33,3.33 0,1.83 1.5,3.33 3.33,3.33 z m 0,-5.67 c 1.29,0 2.33,1.05 2.33,2.33 0,1.28 -1.05,2.33 -2.33,2.33 -1.28,0 -2.33,-1.05 -2.33,-2.33 0,-1.28 1.05,-2.33 2.33,-2.33 z"
         id="path3" />
      <path
         class="cls-1"
         d="m 118.73,0 h -7.07 V 3.41 H 63.01 c 0,0 -13,0.74 -13,0.74 h -0.16 c 0,0 -0.16,0.04 -0.16,0.04 l -4.98,0.93 -0.12,0.02 -0.12,0.03 -4.87,1.41 -0.12,0.03 -0.11,0.05 -4.71,1.88 -0.11,0.05 -0.11,0.06 -4.5,2.33 -0.14,0.07 -0.13,0.09 -6.27,4.29 -0.13,0.09 -0.11,0.1 -3.8,3.35 -0.09,0.08 -0.08,0.09 -3.46,3.7 -0.08,0.09 -0.07,0.1 -3.08,4.02 -0.06,0.07 L 12.39,27.2 11,29.32 10.97,29.37 10.94,29.42 9.66,31.61 9.63,31.66 9.6,31.71 8.46,33.89 8.43,33.95 8.4,34.02 8.36,34.12 6.34,38.77 6.29,38.88 6.25,39 4.56,44.26 4.53,44.36 4.51,44.47 3.19,50.31 3.17,50.42 v 0.11 c 0,0 -0.81,5.93 -0.81,5.93 v 0.11 c 0,0 -0.02,0.11 -0.02,0.11 l -0.27,5.98 v 0.11 c 0,0 0,0.11 0,0.11 l 0.3,6.36 v 0.12 c 0,0 0.02,0.12 0.02,0.12 l 0.9,6.31 v 0.09 c 0,0 0.03,0.09 0.03,0.09 l 0.67,3.11 v 0.06 c 0,0 0.03,0.06 0.03,0.06 l 0.82,3.08 0.02,0.06 0.02,0.06 0.97,3.04 0.02,0.06 0.02,0.06 1.11,2.99 0.02,0.06 0.02,0.05 1.25,2.93 0.02,0.05 0.03,0.05 1.39,2.87 0.04,0.08 0.04,0.08 1.8,3.13 h -0.03 c 0,0 -0.31,0.12 -0.31,0.12 l -0.12,0.04 -0.11,0.05 -0.29,0.14 -0.11,0.05 -0.1,0.06 -0.28,0.17 -0.11,0.06 -0.1,0.07 -0.26,0.19 -0.1,0.07 -0.09,0.08 -0.24,0.22 -0.09,0.08 -0.08,0.09 -0.22,0.24 -0.08,0.09 -0.07,0.1 -0.19,0.26 -0.09,0.12 -0.08,0.13 -0.24,0.42 -0.06,0.11 -0.05,0.11 -0.07,0.15 -0.03,0.06 -0.02,0.06 -0.06,0.15 v 0.03 c 0,0 -0.02,0.03 -0.02,0.03 l -7.2,19.65 -0.08,0.22 -0.04,0.23 -0.11,0.66 -0.48,2.91 h 103.02 v -3.14 L 103,103.06 v -0.15 c 0,0 -0.02,-0.15 -0.02,-0.15 l -0.02,-0.16 v -0.09 c 0,0 -0.03,-0.09 -0.03,-0.09 l -0.06,-0.32 -0.02,-0.12 -0.04,-0.12 -0.09,-0.31 -0.03,-0.09 -0.03,-0.09 -0.06,-0.15 -0.02,-0.06 -0.02,-0.06 -0.07,-0.15 -0.03,-0.06 -0.03,-0.06 -0.07,-0.15 -0.03,-0.05 -0.03,-0.05 -0.08,-0.14 -0.03,-0.05 -0.03,-0.05 -0.09,-0.14 -0.03,-0.05 -0.04,-0.05 -0.09,-0.13 -0.04,-0.05 -0.04,-0.05 -0.1,-0.13 -0.04,-0.05 h -0.01 c 0,0 0.05,-0.11 0.05,-0.11 l 0.06,-0.1 0.05,-0.11 1.88,-3.99 0.05,-0.11 0.04,-0.11 1.48,-4.15 0.04,-0.11 0.03,-0.12 1.07,-4.27 0.03,-0.12 0.02,-0.12 0.34,-2.23 h 4.83 v 2.14 h 9.57 V 0 h -2.5 z m -4.07,82.04 V 3 h 3.57 v 80.18 h -3.57 z m -103.6,-46.69 1.16,-2.22 1.27,-2.17 1.37,-2.09 3.05,-3.99 3.42,-3.67 3.76,-3.31 6.22,-4.26 4.46,-2.31 4.66,-1.86 4.82,-1.4 4.92,-0.92 12.97,-0.73 h 50.51 v 74.63 h -9.41 l -0.71,4.73 -1.06,4.23 -1.46,4.1 -1.85,3.94 -0.98,1.65 -0.82,-0.14 H 86.69 c 0,0 -0.55,0.08 -0.55,0.08 l -0.73,0.23 -0.67,0.37 -0.57,0.48 -5.11,8.62 -0.16,0.23 -0.51,0.5 -0.99,0.49 -0.56,0.09 H 39.48 c 0,0 -0.28,-0.02 -0.28,-0.02 l -0.55,-0.13 -0.51,-0.24 -0.56,-0.44 -5.09,-8.61 -0.55,-0.63 -0.44,-0.35 -1.04,-0.49 -0.94,-0.16 H 16.14 c 0,0 -0.59,-0.83 -0.59,-0.83 L 12.39,93.26 11.01,90.41 9.77,87.5 8.67,84.54 7.71,81.53 6.89,78.47 6.22,75.39 5.32,69.13 5.02,62.81 5.28,56.88 6.07,50.99 7.38,45.2 l 1.67,-5.22 2.01,-4.61 -0.46,-0.2 0.02,-0.03 0.44,0.23 z m 0.48,65.86 0.46,-0.31 0.51,-0.21 0.69,-0.12 h 16.26 c 0,0 0.43,0.05 0.43,0.05 l 0.27,0.07 0.53,0.22 0.76,0.6 5.04,8.57 0.81,0.82 0.65,0.39 0.72,0.26 0.75,0.11 h 37.46 c 0,0 0.75,-0.12 0.75,-0.12 l 0.7,-0.26 1.08,-0.79 0.25,-0.29 4.9,-8.38 0.5,-0.57 0.46,-0.32 0.52,-0.22 0.69,-0.13 h 10.56 c 0,0 0.29,0.02 0.29,0.02 l 1.04,0.37 0.82,0.74 0.47,0.99 0.09,19.38 H 3.53 l 7.15,-19.64 0.3,-0.6 0.17,-0.22 0.39,-0.39 z"
         id="path4" />
    </g>
  </g>
</svg>
