<?xml version="1.0" encoding="UTF-8" standalone="no"?>
<svg
   id="Layer_2"
   data-name="Layer 2"
   viewBox="0 0 125.11 43.099998"
   version="1.1"
   sodipodi:docname="Duct_Damper_AHU_Opposed_Closed_Horizontal.svg"
   width="125.11"
   height="43.099998"
   inkscape:version="1.4.3 (0d15f75, 2025-12-25)"
   xmlns:inkscape="http://www.inkscape.org/namespaces/inkscape"
   xmlns:sodipodi="http://sodipodi.sourceforge.net/DTD/sodipodi-0.dtd"
   xmlns="http://www.w3.org/2000/svg"
   xmlns:svg="http://www.w3.org/2000/svg">
  <sodipodi:namedview
     id="namedview31"
     pagecolor="#ffffff"
     bordercolor="#000000"
     borderopacity="0.25"
     inkscape:showpageshadow="2"
     inkscape:pageopacity="0.0"
     inkscape:pagecheckerboard="0"
     inkscape:deskcolor="#d1d1d1"
     inkscape:zoom="9.3277915"
     inkscape:cx="62.447794"
     inkscape:cy="21.602112"
     inkscape:window-width="2560"
     inkscape:window-height="1369"
     inkscape:window-x="1912"
     inkscape:window-y="-8"
     inkscape:window-maximized="1"
     inkscape:current-layer="Layer_2" />
  <defs
     id="defs1">
    <style
       id="style1">
      .cls-1 {
        fill: #acb6dd;
      }
    </style>
  </defs>
  <g
     id="Duct_Damper_AHU_Opposing"
     transform="rotate(90,62.555,62.555)">
    <g
       id="g31">
      <path
         class="cls-1"
         d="m 19.85,33.57 h 3.4 c 0,0 2.33,-14.71 2.33,-14.71 L 23.25,4.15 h -3.4 c 0,0 -2.33,14.71 -2.33,14.71 z m 1.7,-18.28 c 1.99,0 3.62,1.6 3.62,3.57 0,1.97 -1.62,3.57 -3.62,3.57 -1.01,0 -1.92,-0.41 -2.57,-1.06 -0.65,-0.65 -1.04,-1.53 -1.04,-2.5 0,-1.97 1.62,-3.57 3.62,-3.57 z"
         id="path1" />
      <path
         class="cls-1"
         d="m 21.5,22.45 c 0.93,0 1.86,-0.36 2.57,-1.07 1.41,-1.41 1.43,-3.69 0.04,-5.08 -1.39,-1.39 -3.67,-1.37 -5.08,0.03 -1.41,1.4 -1.43,3.69 -0.04,5.08 0.69,0.69 1.6,1.03 2.51,1.03 z m -2.12,-5.76 c 1.22,-1.22 3.17,-1.23 4.37,-0.03 1.2,1.2 1.18,3.16 -0.03,4.37 -1.22,1.22 -3.17,1.23 -4.37,0.03 -1.2,-1.2 -1.18,-3.16 0.03,-4.37 z"
         id="path2" />
      <path
         class="cls-1"
         d="m 23.72,21.03 c 1.22,-1.22 1.23,-3.17 0.03,-4.37 -1.2,-1.2 -3.16,-1.18 -4.37,0.03 -1.22,1.22 -1.23,3.17 -0.03,4.37 1.2,1.2 3.16,1.18 4.37,-0.03 z m -3.99,-3.98 c 1.02,-1.02 2.66,-1.04 3.67,-0.03 1.01,1.01 0.98,2.65 -0.04,3.67 -1.02,1.02 -2.67,1.03 -3.67,0.03 -1,-1 -0.98,-2.65 0.04,-3.67 z"
         id="path3" />
      <path
         class="cls-1"
         d="m 22.32,19.64 c 0.43,-0.43 0.43,-1.12 0,-1.55 -0.43,-0.43 -1.12,-0.43 -1.55,0 -0.43,0.43 -0.43,1.12 0,1.55 0.43,0.43 1.12,0.43 1.55,0 z"
         id="path4" />
      <path
         class="cls-1"
         d="M 25.58,48.28 23.25,33.57 h -3.4 c 0,0 -2.33,14.71 -2.33,14.71 l 2.33,14.71 h 3.4 z m -7.65,0 c 0,-1.97 1.62,-3.57 3.62,-3.57 1.99,0 3.62,1.6 3.62,3.57 0,0.98 -0.4,1.86 -1.04,2.5 -0.64,0.64 -1.57,1.06 -2.57,1.06 -1.99,0 -3.62,-1.6 -3.62,-3.57 z"
         id="path5" />
      <path
         class="cls-1"
         d="m 21.6,51.87 c 0.91,0 1.82,-0.34 2.51,-1.03 1.39,-1.39 1.38,-3.67 -0.04,-5.08 -1.41,-1.41 -3.69,-1.43 -5.08,-0.04 -1.39,1.39 -1.38,3.67 0.04,5.08 0.71,0.71 1.64,1.07 2.57,1.07 z m -2.26,-5.79 c 1.2,-1.2 3.16,-1.18 4.37,0.03 1.22,1.22 1.23,3.17 0.03,4.37 -1.2,1.2 -3.16,1.18 -4.37,-0.03 -1.22,-1.22 -1.23,-3.17 -0.03,-4.37 z"
         id="path6" />
      <path
         class="cls-1"
         d="m 23.75,50.49 c 1.2,-1.2 1.18,-3.16 -0.03,-4.37 -1.22,-1.22 -3.17,-1.23 -4.37,-0.03 -1.2,1.2 -1.18,3.16 0.03,4.37 1.22,1.22 3.17,1.23 4.37,0.03 z M 19.7,46.43 c 1,-1 2.65,-0.99 3.67,0.04 1.02,1.03 1.04,2.66 0.04,3.67 -1,1 -2.64,0.99 -3.67,-0.03 -1.02,-1.02 -1.04,-2.66 -0.04,-3.67 z"
         id="path7" />
      <path
         class="cls-1"
         d="m 22.32,49.06 c 0.43,-0.43 0.43,-1.12 0,-1.55 -0.43,-0.43 -1.12,-0.43 -1.55,0 -0.43,0.43 -0.43,1.12 0,1.55 0.43,0.43 1.12,0.43 1.55,0 z"
         id="path8" />
      <path
         class="cls-1"
         d="m 19.85,92.42 h 3.4 c 0,0 2.33,-14.71 2.33,-14.71 L 23.25,63 h -3.4 c 0,0 -2.33,14.71 -2.33,14.71 z m 1.7,-18.28 c 1.99,0 3.62,1.6 3.62,3.57 0,1.97 -1.62,3.57 -3.62,3.57 -1.01,0 -1.92,-0.41 -2.57,-1.06 -0.65,-0.65 -1.04,-1.53 -1.04,-2.5 0,-1.97 1.62,-3.57 3.62,-3.57 z"
         id="path9" />
      <path
         class="cls-1"
         d="m 21.5,81.3 c 0.93,0 1.86,-0.36 2.57,-1.07 1.41,-1.41 1.43,-3.69 0.04,-5.08 -1.39,-1.39 -3.67,-1.37 -5.08,0.04 -1.41,1.41 -1.43,3.69 -0.04,5.08 0.69,0.69 1.6,1.03 2.51,1.03 z m -2.12,-5.76 c 1.22,-1.22 3.17,-1.23 4.37,-0.03 1.2,1.2 1.18,3.16 -0.03,4.37 -1.22,1.22 -3.17,1.23 -4.37,0.03 -1.2,-1.2 -1.18,-3.16 0.03,-4.37 z"
         id="path10" />
      <path
         class="cls-1"
         d="m 23.72,79.87 c 1.22,-1.22 1.23,-3.17 0.03,-4.37 -1.2,-1.2 -3.16,-1.18 -4.37,0.03 -1.22,1.22 -1.23,3.17 -0.03,4.37 1.2,1.2 3.16,1.18 4.37,-0.03 z m -3.99,-3.98 c 1.02,-1.02 2.67,-1.04 3.67,-0.04 1,1 0.98,2.65 -0.04,3.67 -1.02,1.02 -2.67,1.04 -3.67,0.04 -1,-1 -0.98,-2.65 0.04,-3.67 z"
         id="path11" />
      <path
         class="cls-1"
         d="m 22.32,78.48 c 0.43,-0.43 0.43,-1.12 0,-1.55 -0.43,-0.43 -1.12,-0.43 -1.55,0 -0.43,0.43 -0.43,1.12 0,1.55 0.43,0.43 1.12,0.43 1.55,0 z"
         id="path12" />
      <path
         class="cls-1"
         d="M 25.58,107.13 23.25,92.42 h -3.4 l -2.33,14.71 2.33,14.71 h 3.4 z m -7.65,0 c 0,-1.97 1.62,-3.57 3.62,-3.57 1.99,0 3.62,1.6 3.62,3.57 0,0.97 -0.4,1.86 -1.04,2.5 -0.64,0.64 -1.57,1.06 -2.57,1.06 -1.99,0 -3.62,-1.6 -3.62,-3.57 z"
         id="path13" />
      <path
         class="cls-1"
         d="m 21.6,110.72 c 0.91,0 1.82,-0.34 2.51,-1.03 1.39,-1.39 1.38,-3.67 -0.04,-5.08 -1.41,-1.41 -3.69,-1.42 -5.08,-0.04 -1.39,1.39 -1.38,3.67 0.04,5.08 0.71,0.71 1.64,1.07 2.57,1.07 z m -2.26,-5.8 c 1.2,-1.2 3.16,-1.18 4.37,0.03 1.22,1.22 1.23,3.17 0.03,4.37 -1.2,1.2 -3.16,1.18 -4.37,-0.03 -1.22,-1.22 -1.23,-3.17 -0.03,-4.37 z"
         id="path14" />
      <path
         class="cls-1"
         d="m 23.75,109.33 c 1.2,-1.2 1.18,-3.16 -0.03,-4.37 -1.22,-1.22 -3.17,-1.23 -4.37,-0.03 -1.2,1.2 -1.18,3.16 0.03,4.37 1.22,1.22 3.17,1.23 4.37,0.03 z m -4.05,-4.05 c 1,-1 2.65,-0.99 3.67,0.04 1.02,1.02 1.04,2.67 0.04,3.67 -1,1 -2.65,0.99 -3.67,-0.04 -1.02,-1.02 -1.04,-2.66 -0.04,-3.67 z"
         id="path15" />
      <path
         class="cls-1"
         d="m 22.32,107.9 c 0.43,-0.43 0.43,-1.12 0,-1.55 -0.43,-0.43 -1.12,-0.43 -1.55,0 -0.43,0.43 -0.43,1.12 0,1.55 0.43,0.43 1.12,0.43 1.55,0 z"
         id="path16" />
      <rect
         class="cls-1"
         x="7.5799999"
         y="4.9000001"
         width="27.940001"
         height="0.5"
         id="rect16" />
      <rect
         class="cls-1"
         x="7.5799999"
         y="120.14"
         width="27.940001"
         height="0.5"
         id="rect17" />
      <polygon
         class="cls-1"
         points="6.58,3 6.58,4.4 7.08,4.4 7.08,2.5 2.5,2.5 2.5,122.61 7.08,122.61 7.08,121.14 6.58,121.14 6.58,122.11 3,122.11 3,3 "
         id="polygon17" />
      <polygon
         class="cls-1"
         points="7.08,4.4 6.58,4.4 6.58,121.14 7.08,121.14 7.08,120.64 7.58,120.64 7.58,120.14 7.58,5.4 7.58,4.9 7.08,4.9 "
         id="polygon18" />
      <polygon
         class="cls-1"
         points="36.51,122.11 36.51,121.14 36.01,121.14 36.01,122.61 40.59,122.61 40.59,2.5 36.01,2.5 36.01,4.4 36.51,4.4 36.51,3 40.09,3 40.09,122.11 "
         id="polygon19" />
      <polygon
         class="cls-1"
         points="35.51,120.64 36.01,120.64 36.01,121.14 36.51,121.14 36.51,4.4 36.01,4.4 36.01,4.9 35.51,4.9 35.51,5.4 35.51,120.14 "
         id="polygon20" />
      <path
         class="cls-1"
         d="M 40.59,0 H 33.51 V 2.4 H 9.58 V 0 H 0 v 125.11 h 9.58 v -1.97 h 23.94 v 1.97 H 43.1 V 0 h -2.5 z m 0.5,123.11 h -5.58 v -1.97 H 7.58 v 1.97 H 2 V 2 H 7.58 V 4.4 H 35.52 V 2 h 5.58 v 121.11 z"
         id="path20" />
      <rect
         class="cls-1"
         x="7.5799999"
         y="4.4000001"
         width="27.940001"
         height="0.5"
         id="rect20" />
      <rect
         class="cls-1"
         x="7.5799999"
         y="120.64"
         width="27.940001"
         height="0.5"
         id="rect21" />
      <polygon
         class="cls-1"
         points="7.08,2.5 7.08,4.4 7.58,4.4 7.58,2 2,2 2,123.11 7.58,123.11 7.58,121.14 7.08,121.14 7.08,122.61 2.5,122.61 2.5,2.5 "
         id="polygon21" />
      <rect
         class="cls-1"
         x="7.0799999"
         y="120.64"
         width="0.5"
         height="0.5"
         id="rect22" />
      <rect
         class="cls-1"
         x="7.0799999"
         y="4.4000001"
         width="0.5"
         height="0.5"
         id="rect23" />
      <polygon
         class="cls-1"
         points="40.59,2.5 40.59,122.61 36.01,122.61 36.01,121.14 35.51,121.14 35.51,123.11 41.09,123.11 41.09,2 35.51,2 35.51,4.4 36.01,4.4 36.01,2.5 "
         id="polygon23" />
      <rect
         class="cls-1"
         x="35.509998"
         y="4.4000001"
         width="0.5"
         height="0.5"
         id="rect24" />
      <rect
         class="cls-1"
         x="35.509998"
         y="120.64"
         width="0.5"
         height="0.5"
         id="rect25" />
      <circle
         class="cls-1"
         cx="4.8299999"
         cy="6.9899998"
         r="1.1"
         id="circle25" />
      <path
         class="cls-1"
         d="m 4.83,43 c -0.61,0 -1.1,0.49 -1.1,1.1 0,0.61 0.49,1.1 1.1,1.1 0.61,0 1.1,-0.49 1.1,-1.1 0,-0.61 -0.49,-1.1 -1.1,-1.1 z"
         id="path25" />
      <path
         class="cls-1"
         d="m 4.83,80.09 c -0.61,0 -1.1,0.49 -1.1,1.1 0,0.61 0.49,1.1 1.1,1.1 0.61,0 1.1,-0.49 1.1,-1.1 0,-0.61 -0.49,-1.1 -1.1,-1.1 z"
         id="path26" />
      <path
         class="cls-1"
         d="m 4.83,117.19 c -0.61,0 -1.1,0.49 -1.1,1.1 0,0.61 0.49,1.1 1.1,1.1 0.61,0 1.1,-0.49 1.1,-1.1 0,-0.61 -0.49,-1.1 -1.1,-1.1 z"
         id="path27" />
      <path
         class="cls-1"
         d="m 38.3,8.09 c 0.61,0 1.1,-0.49 1.1,-1.1 0,-0.61 -0.49,-1.1 -1.1,-1.1 -0.61,0 -1.1,0.49 -1.1,1.1 0,0.61 0.49,1.1 1.1,1.1 z"
         id="path28" />
      <path
         class="cls-1"
         d="m 38.3,45.19 c 0.61,0 1.1,-0.49 1.1,-1.1 0,-0.61 -0.49,-1.1 -1.1,-1.1 -0.61,0 -1.1,0.49 -1.1,1.1 0,0.61 0.49,1.1 1.1,1.1 z"
         id="path29" />
      <path
         class="cls-1"
         d="m 38.3,82.29 c 0.61,0 1.1,-0.49 1.1,-1.1 0,-0.61 -0.49,-1.1 -1.1,-1.1 -0.61,0 -1.1,0.49 -1.1,1.1 0,0.61 0.49,1.1 1.1,1.1 z"
         id="path30" />
      <path
         class="cls-1"
         d="m 38.3,119.39 c 0.61,0 1.1,-0.49 1.1,-1.1 0,-0.61 -0.49,-1.1 -1.1,-1.1 -0.61,0 -1.1,0.49 -1.1,1.1 0,0.61 0.49,1.1 1.1,1.1 z"
         id="path31" />
    </g>
  </g>
</svg>
