<?xml version="1.0" encoding="UTF-8"?>
<svg id="Layer_2" data-name="Layer 2" xmlns="http://www.w3.org/2000/svg" viewBox="0 0 12.03 40.21">
  <defs>
    <style>
      .cls-1 {
        fill: #acb6dd;
      }
    </style>
  </defs>
  <g transform="translate(12.03,40.21) rotate(180)">
  <g id="Pipe_Cap">
    <path class="cls-1" d="M0,33.61v4.11s0,2.5,0,2.5h2.5s9.53,0,9.53,0v-2s0-5.12,0-5.12v-.57s0-24.98,0-24.98v-.43s0-5.12,0-5.12V0H2.5S0,0,0,0v2.5s0,4.11,0,4.11M11.03,37.21H3s0-4.12,0-4.12h8.03s0,4.12,0,4.12ZM11.03,32.09H3s0-.49,0-.49V8.61s0-.49,0-.49h8.03s0,23.98,0,23.98ZM11.03,7.12H3s0-4.12,0-4.12h8.03s0,4.12,0,4.12Z"/>
  </g>
</g>
</svg>