<?xml version="1.0" encoding="UTF-8"?>
<svg id="Layer_2" data-name="Layer 2" xmlns="http://www.w3.org/2000/svg" viewBox="0 0 80.26 80.26">
  <defs>
    <style>
      .cls-1 {
        fill: #acb6dd;
      }
    </style>
  </defs>
  <g transform="translate(80.26,80.26) rotate(180)">
  <g id="Pipe_Tee">
    <path class="cls-1" d="M79.76,20.03H68.23V26.63H12.03V20.02H0V60.24H12.03V53.64H26.63V68.24H20.03V80.27H60.24V68.24H53.63V53.64H68.23V60.24H80.26V20.03H79.76ZM9.03,57.24H1v-4.12h8.03v4.12ZM9.03,28.63v23.49H1v-23.98h8.03v.49ZM9.03,27.14H1v-4.12h8.03v4.12ZM27.14,79.26h-4.12v-8.03h4.12v8.03ZM52.12,79.26h-23.98v-8.03h23.98v8.03ZM57.24,71.23v8.03h-4.12v-8.03h4.12ZM70.23,50.63h-19.6v19.6h-21v-19.6H10.03v-21H70.23v21ZM79.26,57.24h-8.03v-4.12h8.03v4.12ZM79.26,52.12h-8.03v-23.98h8.03v23.98ZM79.26,27.14h-8.03v-4.12h8.03v4.12Z"/>
  </g>
</g>
</svg>