<?xml version="1.0" encoding="UTF-8"?>
<svg id="Layer_2" data-name="Layer 2" xmlns="http://www.w3.org/2000/svg" viewBox="0 0 60.24 60.24">
  <defs>
    <style>
      .cls-1 {
        fill: #acb6dd;
      }
    </style>
  </defs>
  <g transform="translate(60.24,60.24) rotate(180)">
  <g id="Pipe_Elbow">
    <path class="cls-1" d="M57.74,48.2h-4.11v-17.6c0-13.26-10.75-24-24-24H12.03V0H0v40.21h12.03v-6.6h11.16c1.9,0,3.44,1.54,3.44,3.44v11.16h-4.1s-2.5,0-2.5,0v12.03h40.21v-12.03h-2.5ZM9.03,37.21H1v-4.12h8.03v4.12ZM9.03,8.61v23.49H1V8.12h8.03v.49ZM9.03,7.12H1V3h8.03v4.12ZM23.95,30.61h-11.92V9.61h17.12c11.87,0,21.48,9.62,21.48,21.48v17.11h-21v-11.92c0-3.14-2.54-5.68-5.68-5.68ZM27.14,59.24h-4.12v-8.03h4.12v8.03ZM52.12,59.24h-23.98v-8.03h23.98v8.03ZM57.24,59.24h-4.12v-8.03h4.12v8.03Z"/>
  </g>
</g>
</svg>