<?xml version="1.0" encoding="UTF-8"?>
<svg id="Layer_2" data-name="Layer 2" xmlns="http://www.w3.org/2000/svg" viewBox="0 0 80.26 80.26">
  <defs>
    <style>
      .cls-1 {
        fill: #acb6dd;
      }
    </style>
  </defs>
  <g id="Pipe_Cross">
    <path class="cls-1" d="M79.76,20.03h-11.53v2.5s0,4.11,0,4.11h-14.6v-14.6h4.11s2.5,0,2.5,0V0H20.03v12.03h6.6v14.6h-14.6v-4.11s0-2.5,0-2.5H0v40.21h12.03v-6.6h14.6v14.6h-4.1s-2.5,0-2.5,0v12.03h40.21v-12.03h-2.5s-4.11,0-4.11,0v-14.6h14.6v4.1s0,2.5,0,2.5h12.03V20.03h-.5ZM9.03,57.24H1v-4.12h8.03v4.12ZM9.03,28.63v23.49H1v-23.98h8.03v.49ZM9.03,27.14H1v-4.12h8.03v4.12ZM53.12,1h4.12v8.03h-4.12V1ZM28.14,1h23.98v8.03h-23.98V1ZM23.03,9.03V1h4.12v8.03h-4.12ZM27.14,79.26h-4.12v-8.03h4.12v8.03ZM52.12,79.26h-23.98v-8.03h23.98v8.03ZM57.24,71.23v8.03h-4.12v-8.03h4.12ZM70.23,50.63h-19.6v19.6h-21v-19.6H10.03v-21h19.6V10.03h21v19.6h19.6v21ZM79.26,57.24h-8.03v-4.12h8.03v4.12ZM79.26,52.12h-8.03v-23.98h8.03v23.98ZM79.26,27.14h-8.03v-4.12h8.03v4.12Z"/>
  </g>
</svg>