<?xml version="1.0" encoding="UTF-8" standalone="no"?>
<svg
   id="Layer_2"
   data-name="Layer 2"
   viewBox="0 0 139.41 45.71"
   version="1.1"
   sodipodi:docname="Duct_Sensor_Generic.svg"
   inkscape:version="1.4 (86a8ad7, 2024-10-11)"
   xmlns:inkscape="http://www.inkscape.org/namespaces/inkscape"
   xmlns:sodipodi="http://sodipodi.sourceforge.net/DTD/sodipodi-0.dtd"
   xmlns="http://www.w3.org/2000/svg"
   xmlns:svg="http://www.w3.org/2000/svg">
  <sodipodi:namedview
     id="namedview53"
     pagecolor="#ffffff"
     bordercolor="#000000"
     borderopacity="0.25"
     inkscape:showpageshadow="2"
     inkscape:pageopacity="0.0"
     inkscape:pagecheckerboard="0"
     inkscape:deskcolor="#d1d1d1"
     inkscape:zoom="13.019152"
     inkscape:cx="22.850951"
     inkscape:cy="69.705002"
     inkscape:window-width="3840"
     inkscape:window-height="2054"
     inkscape:window-x="-11"
     inkscape:window-y="-11"
     inkscape:window-maximized="1"
     inkscape:current-layer="g53" />
  <defs
     id="defs1">
    <style
       id="style1">
      .cls-1 {
        fill: #acb6dd;
      }
    </style>
  </defs>
  <g transform="translate(0,45.71) rotate(-90)">
  <g
     id="Duct_Sensor_Generic">
    <g
       id="g53">
      <polygon
         class="cls-1"
         points="8.54 11 8.49 10.86 8.49 11 8.54 11"
         id="polygon1" />
      <path
         class="cls-1"
         d="M2.75,12.69v4.37c.05.12.1.2.16.29v-4.96c-.05.09-.11.18-.16.29Z"
         id="path1" />
      <rect
         class="cls-1"
         x="24"
         y="21.7"
         width="1.86"
         height="4.17"
         id="rect1" />
      <polygon
         class="cls-1"
         points="19.3 36.77 13.94 34.27 13.94 28.96 16.09 29.03 21.42 26.86 23 26.86 23 26.36 21.3 26.36 16 28.52 13.44 28.44 13.44 34.59 19.19 37.27 23 37.27 23 36.77 19.3 36.77"
         id="polygon2" />
      <polygon
         class="cls-1"
         points="28.44 26.86 33.76 29.03 35.91 28.96 35.91 34.27 30.56 36.77 26.86 36.77 26.86 37.27 30.67 37.27 36.41 34.59 36.41 28.44 33.85 28.52 28.54 26.36 26.86 26.36 26.86 26.86 28.44 26.86"
         id="polygon3" />
      <polygon
         class="cls-1"
         points="26.36 137.16 26.36 64.15 25.86 64.15 25.86 136.66 24 136.66 24 64.15 23.5 64.15 23.5 137.16 26.36 137.16"
         id="polygon4" />
      <rect
         class="cls-1"
         x="23.5"
         y="37.77"
         width=".5"
         height="17.89"
         id="rect4" />
      <rect
         class="cls-1"
         x="25.86"
         y="37.77"
         width=".5"
         height="17.89"
         id="rect5" />
      <polygon
         class="cls-1"
         points="23 36.77 23 37.27 23.5 37.27 23.5 37.29 23.5 36.77 23 36.77"
         id="polygon5" />
      <polygon
         class="cls-1"
         points="26.36 36.77 26.36 37.27 26.37 37.27 26.86 37.27 26.86 36.77 26.36 36.77"
         id="polygon6" />
      <polygon
         class="cls-1"
         points="24 21.7 25.86 21.7 25.86 25.86 26.36 25.86 26.36 21.68 23.5 21.68 23.5 25.86 24 25.86 24 21.7"
         id="polygon7" />
      <rect
         class="cls-1"
         x="23"
         y="26.36"
         width=".5"
         height=".5"
         id="rect7" />
      <rect
         class="cls-1"
         x="26.36"
         y="26.36"
         width=".5"
         height=".5"
         id="rect8" />
      <polygon
         class="cls-1"
         points="26.36 26.86 26.36 26.36 26.36 26.36 26.36 26.22 26.36 25.86 25.86 25.86 24 25.86 23.5 25.86 23.5 26.12 23.5 26.36 23.5 26.36 23.5 26.86 26.36 26.86"
         id="polygon8" />
      <polygon
         class="cls-1"
         points="25.86 37.77 26.36 37.77 26.36 37.27 26.36 37.27 26.36 36.77 23.5 36.77 23.5 37.29 23.5 37.31 23.5 37.77 24 37.77 25.86 37.77"
         id="polygon9" />
      <path
         class="cls-1"
         d="M26.86,20.7v.49h8.46s.02,0,.05,0c.25,0,1.33-.08,2.01-1.32l3.55-9.66h-.53l-3.45,9.41c-.7,1.23-1.49,1.08-1.5,1.08l-21.05-.02h-.12s-.81.17-1.48-.99l-3.49-9.48h-.83v.65l.05.15h.72v1h-.36l2.11,5.71h.73v.54l.59,1.61c.76,1.31,2.06,1.31,2.07,1.31h8.6s0-.49,0-.49h3.86Z"
         id="path9" />
      <polygon
         class="cls-1"
         points="26.36 21.18 26.86 21.18 26.86 20.7 23 20.7 23 21.19 23.5 21.2 23.5 21.68 26.36 21.68 26.36 21.18"
         id="polygon10" />
      <path
         class="cls-1"
         d="M8.49,9.75l.58-.21.25.67h31.09l.25-.67.47.17h1.71l.62-1.72v-2.87s.16-2.66-2.87-2.87H9.14c-3.02.21-2.87,2.87-2.87,2.87v2.87l.51,1.42h1.71v.35ZM7.25,9.21l-.47-1.31v-2.81c-.01-.22-.03-2.17,2.37-2.34h31.42c2.44.17,2.41,2.12,2.4,2.37v2.78l-.47,1.31H7.25Z"
         id="path10" />
      <polygon
         class="cls-1"
         points="40.41 10.21 40.94 10.21 41.13 9.71 41.13 9.71 40.66 9.54 40.41 10.21"
         id="polygon11" />
      <polygon
         class="cls-1"
         points="8.49 9.75 8.49 10.21 9.32 10.21 9.07 9.54 8.49 9.75"
         id="polygon12" />
      <path
         class="cls-1"
         d="M2.91,12.39v4.96c.2.36.42.57.57.67v-6.31c-.14.1-.36.31-.57.68Z"
         id="path12" />
      <path
         class="cls-1"
         d="M3.47,10.22c-.03.07-.07.14-.07.24v.69l.07.16v-1.09Z"
         id="path13" />
      <polygon
         class="cls-1"
         points="4.47 10.41 7.49 10.41 7.49 11.91 7.99 11.91 7.99 11 8.49 11 8.49 10.86 8.25 10.21 6.55 10.21 6.44 9.91 3.97 9.91 3.97 9.91 4.47 9.91 4.47 10.41"
         id="polygon13" />
      <polygon
         class="cls-1"
         points="7.99 12 7.99 12.91 7.49 12.91 7.49 16.87 7.99 16.87 7.99 17.72 8.49 17.72 8.49 12 7.99 12"
         id="polygon14" />
      <path
         class="cls-1"
         d="M7.99,17.87h-.5v1.49l-3.02-.04v.51h-.69c.1.03.19.04.19.04h4.02v-1.15h0v-.85Z"
         id="path14" />
      <path
         class="cls-1"
         d="M3.41,18.6v.71c0,.1.03.17.07.24v-1.1l-.07.15Z"
         id="path15" />
      <polygon
         class="cls-1"
         points="8.49 10.86 8.49 10.21 8.25 10.21 8.49 10.86"
         id="polygon15" />
      <polygon
         class="cls-1"
         points="8.25 10.21 8.13 9.89 8.49 9.75 8.49 9.41 6.79 9.41 6.9 9.71 6.9 9.91 6.44 9.91 6.55 10.21 8.25 10.21"
         id="polygon16" />
      <polygon
         class="cls-1"
         points="8.13 9.89 8.25 10.21 8.49 10.21 8.49 9.75 8.13 9.89"
         id="polygon17" />
      <path
         class="cls-1"
         d="M2.75,17.06v-4.37c.05-.12.1-.2.16-.29v-.85c-.22.22-.47.55-.66,1.05v4.55c.18.49.43.83.66,1.05v-.85c-.05-.09-.11-.18-.16-.29Z"
         id="path17" />
      <path
         class="cls-1"
         d="M3.47,18.03c-.14-.1-.36-.32-.57-.67v.85c.25.24.46.35.5.37v.03h0s.07-.15.07-.15v-.42Z"
         id="path18" />
      <path
         class="cls-1"
         d="M3.47,11.72v-.41l-.07-.16v.02h-.01s-.22.11-.49.37v.85c.2-.36.42-.58.57-.68Z"
         id="path19" />
      <polygon
         class="cls-1"
         points="3.97 17.87 3.97 16.87 4.47 16.87 4.47 12.91 3.97 12.91 3.97 11.91 4.47 11.91 4.47 10.41 3.97 10.41 3.91 15.57 3.91 19.31 4.47 19.32 4.47 17.87 3.97 17.87"
         id="polygon19" />
      <path
         class="cls-1"
         d="M4.47,19.32h-.57v-3.75l.07-5.16h.5v-.5h-.5s-.36.02-.5.32v1.09l.13.32s-.06.03-.13.09v6.31c.08.05.14.09.14.09l-.14.33v1.1c.07.16.19.24.31.28h.69v-.51Z"
         id="path20" />
      <path
         class="cls-1"
         d="M3.61,18.12s-.06-.04-.14-.09v.42l.14-.33Z"
         id="path21" />
      <path
         class="cls-1"
         d="M3.61,11.63l-.13-.32v.41c.07-.05.13-.08.13-.09Z"
         id="path22" />
      <rect
         class="cls-1"
         x="4.47"
         y="11.91"
         width="3.02"
         height="1"
         id="rect22" />
      <polygon
         class="cls-1"
         points="7.99 12.91 7.99 12 7.99 11.91 7.49 11.91 7.49 12.91 7.99 12.91"
         id="polygon22" />
      <rect
         class="cls-1"
         x="3.97"
         y="11.91"
         width=".5"
         height="1"
         id="rect23" />
      <rect
         class="cls-1"
         x="4.47"
         y="16.87"
         width="3.02"
         height="1"
         id="rect24" />
      <polygon
         class="cls-1"
         points="7.49 16.87 7.49 17.87 7.99 17.87 7.99 17.72 7.99 16.87 7.49 16.87"
         id="polygon24" />
      <rect
         class="cls-1"
         x="3.97"
         y="16.87"
         width=".5"
         height="1"
         id="rect25" />
      <polygon
         class="cls-1"
         points="8.49 12 8.91 12 8.54 11 8.49 11 8.49 12"
         id="polygon25" />
      <polygon
         class="cls-1"
         points="9.27 12 9.27 11 8.54 11 8.91 12 9.27 12"
         id="polygon26" />
      <polygon
         class="cls-1"
         points="8.49 12 8.49 11 7.99 11 7.99 11.91 7.99 12 8.49 12"
         id="polygon27" />
      <polygon
         class="cls-1"
         points="8.49 17.72 8.49 18.22 11.2 18.22 11.02 17.72 8.49 17.72"
         id="polygon28" />
      <polygon
         class="cls-1"
         points="11.02 17.72 11.2 18.22 11.73 18.22 11.73 18.22 11.75 18.26 11.75 17.72 11.02 17.72"
         id="polygon29" />
      <polygon
         class="cls-1"
         points="7.99 17.72 7.99 17.87 7.99 18.72 7.99 18.72 7.99 18.22 8.49 18.22 8.49 17.72 7.99 17.72"
         id="polygon30" />
      <polygon
         class="cls-1"
         points="23,137.66 23,64.15 21.25,64.15 21.25,137.16 21.25,139.41 23.5,139.41 26.36,139.41 28.61,139.41 28.61,137.16 28.61,64.15 26.86,64.15 26.86,137.66 "
         id="polygon31"
         transform="matrix(1,0,0,1.1153271,0,-16.077757)" />
      <path
         class="cls-1"
         d="M40.75,0h-.08s-.08,0-.08,0H8.98c-3.79.27-5.04,3.21-4.96,5.17v2.48h-.05c-1.29,0-2.61.91-2.79,2.43-.41.44-.78,1.02-1.04,1.74l-.13.37v5.34l.13.37c.27.76.66,1.32,1.04,1.73.17,1.54,1.5,2.46,2.78,2.47h4.03s2.25,0,2.25,0v-1.43l.05.14.1.17c1.04,1.8,2.81,2.44,4.01,2.44h6.85v.68h-.39l-.41.17-4.86,1.98-2.08-.07-2.32-.08v9.91l1.3.61,5.74,2.68.45.21h2.57v16.14h1.75v-17.89l-4.03-.04-6.03-2.81v-6.99l2.96.1,5.41-2.16h1.68v-4.18h-8.55c-.06,0-.15.02-.27.02-.51,0-1.49-.21-2.28-1.59l-.52-1.4h-2.9v1.65H3.97c-.52,0-1.07-.37-1.07-1.06v-.46c-.32-.23-.82-.69-1.12-1.53l-.03-.17.03-4.72c.31-.85.8-1.31,1.12-1.53v-.43c0-.68.55-1.05,1.06-1.06h2.3l-.49-1.42v-2.87c-.06-1.06.55-3.17,3.33-3.37h31.49c2.82.2,3.43,2.31,3.37,3.4v2.93s-.77,2.13-.77,2.13h-1.71l-3.62,9.83c-1,1.76-2.25,1.69-2.58,1.64h-8.42v4.18l1.86.03,5.22,2.12,2.96-.1v6.99l-6.13,2.86h-3.92v17.89h1.75v-16.14h2.55l.45-.21,5.74-2.68,1.3-.61v-9.91l-2.32.08-2.08.07-4.88-1.98-.41-.17h-.36v-.68h6.66s.06,0,.1,0c1.26,0,2.97-.65,3.98-2.48l.08-.15.06-.16,3.19-8.68h1.72l.54-1.48.62-1.72.13-.37v-3.21c.08-1.96-1.16-4.9-4.96-5.17Z"
         id="path31" />
      <polygon
         class="cls-1"
         points="19.19 37.27 13.44 34.59 13.44 28.44 16 28.52 21.3 26.36 23 26.36 23 25.86 21.32 25.86 15.91 28.02 12.94 27.92 12.94 34.91 18.97 37.72 23 37.76 23 37.27 19.19 37.27"
         id="polygon32" />
      <polygon
         class="cls-1"
         points="28.54 26.36 33.85 28.52 36.41 28.44 36.41 34.59 30.67 37.27 26.86 37.27 26.86 37.77 30.78 37.77 36.91 34.91 36.91 27.92 33.94 28.02 28.72 25.9 26.86 25.87 26.86 26.36 28.54 26.36"
         id="polygon33" />
      <polygon
         class="cls-1"
         points="26.36 37.77 26.36 55.66 26.86 55.66 26.86 37.77 26.36 37.77 26.36 37.77"
         id="polygon34" />
      <polygon
         class="cls-1"
         points="23.5,137.16 23.5,64.15 23,64.15 23,137.66 26.86,137.66 26.86,64.15 26.36,64.15 26.36,137.16 "
         id="polygon35"
         transform="matrix(1,0,0,1.1212073,0,-16.685401)" />
      <polygon
         class="cls-1"
         points="23.5 37.77 23.5 37.77 23 37.76 23 55.66 23.5 55.66 23.5 37.77"
         id="polygon36" />
      <polygon
         class="cls-1"
         points="23.5 37.29 23.5 37.27 23 37.27 23 37.76 23.5 37.77 23.5 37.29"
         id="polygon37" />
      <polygon
         class="cls-1"
         points="26.37 37.27 26.36 37.27 26.36 37.77 26.86 37.77 26.86 37.27 26.37 37.27"
         id="polygon38" />
      <polygon
         class="cls-1"
         points="26.36 25.86 26.36 25.86 26.86 25.87 26.86 21.68 26.36 21.68 26.36 25.86"
         id="polygon39" />
      <polygon
         class="cls-1"
         points="23.5 25.86 23.5 21.68 23 21.68 23 25.86 23.5 25.86 23.5 25.86"
         id="polygon40" />
      <rect
         class="cls-1"
         x="23"
         y="25.86"
         width=".5"
         height=".5"
         id="rect40" />
      <rect
         class="cls-1"
         x="26.36"
         y="25.87"
         width=".5"
         height=".5"
         id="rect41" />
      <polygon
         class="cls-1"
         points="26.36 26.36 26.36 26.36 26.36 25.86 26.36 25.86 26.36 26.22 26.36 26.36"
         id="polygon41" />
      <polygon
         class="cls-1"
         points="23.5 26.12 23.5 25.86 23.5 25.86 23.5 26.36 23.5 26.36 23.5 26.12"
         id="polygon42" />
      <polygon
         class="cls-1"
         points="23.5 37.29 23.5 37.77 23.5 37.77 23.5 37.31 23.5 37.29"
         id="polygon43" />
      <rect
         class="cls-1"
         x="26.36"
         y="37.27"
         width="0"
         height=".5"
         id="rect43" />
      <path
         class="cls-1"
         d="M37.39,19.87c-.69,1.24-1.76,1.32-2.01,1.32-.03,0-.05,0-.05,0h-8.46v.5h8.42c.33.05,1.58.12,2.58-1.64l3.62-9.83h-.53l-3.55,9.66Z"
         id="path43" />
      <path
         class="cls-1"
         d="M14.4,21.18s-1.31,0-2.07-1.31l-.59-1.61v.46h-.36l.52,1.4c.79,1.38,1.77,1.59,2.28,1.59.12,0,.21-.01.27-.02h8.55v-.49h-8.6Z"
         id="path44" />
      <rect
         class="cls-1"
         x="26.36"
         y="21.18"
         width=".5"
         height=".5"
         id="rect44" />
      <rect
         class="cls-1"
         x="23.01"
         y="21.19"
         width=".49"
         height=".5"
         transform="translate(1.79 44.67) rotate(-89.94)"
         id="rect45" />
      <path
         class="cls-1"
         d="M6.27,7.99v-2.87s-.16-2.66,2.87-2.87h31.45c3.02.21,2.87,2.87,2.87,2.87v2.87l-.62,1.72h-1.71l.47.17-.12.33h1.71l.77-2.13v-2.93c.06-1.09-.55-3.2-3.37-3.4H9.1c-2.78.2-3.4,2.31-3.33,3.37v2.87l.49,1.42h.52l-.51-1.42Z"
         id="path45" />
      <polygon
         class="cls-1"
         points="41.13 9.71 41.13 9.71 40.94 10.21 41.48 10.21 41.6 9.89 41.13 9.71"
         id="polygon45" />
      <path
         class="cls-1"
         d="M3.41,11.16v-.69c0-.1.03-.17.07-.24v-.32h.5s0,0,0,0h2.47l-.17-.5h-2.3c-.52,0-1.06.37-1.06,1.06v.43c.16-.11.28-.17.31-.18l.19.44Z"
         id="path46" />
      <path
         class="cls-1"
         d="M7.99,19.86H3.97s-.09-.01-.19-.04h-.31v-.28c-.03-.07-.07-.14-.07-.24v-.71l-.19.44s-.14-.06-.31-.18v.46c0,.68.55,1.05,1.07,1.06h4.52v-1.65h-.5v1.15Z"
         id="path47" />
      <polygon
         class="cls-1"
         points="6.9 9.91 6.9 9.71 6.79 9.41 6.27 9.41 6.44 9.91 6.9 9.91"
         id="polygon47" />
      <path
         class="cls-1"
         d="M2.25,17.15v-4.55c.18-.5.43-.83.66-1.05v-.65c-.32.22-.82.68-1.12,1.53l-.03,4.72.03.17c.3.84.8,1.3,1.12,1.53v-.65c-.22-.22-.48-.56-.66-1.05Z"
         id="path48" />
      <path
         class="cls-1"
         d="M3.41,18.6h0v-.03s-.25-.13-.5-.37v.65c.17.12.3.18.31.18l.19-.44Z"
         id="path49" />
      <path
         class="cls-1"
         d="M3.39,11.18h.01v-.02l-.19-.44s-.15.07-.31.18v.65c.27-.26.49-.36.49-.36Z"
         id="path50" />
      <path
         class="cls-1"
         d="M3.47,19.55v.28h.31c-.12-.04-.24-.12-.31-.28Z"
         id="path51" />
      <path
         class="cls-1"
         d="M3.97,9.91h-.5v.32c.14-.3.49-.32.5-.32Z"
         id="path52" />
      <polygon
         class="cls-1"
         points="8.49 18.22 8.49 18.72 11.39 18.72 11.2 18.22 8.49 18.22"
         id="polygon52" />
      <polygon
         class="cls-1"
         points="11.75 18.26 11.73 18.22 11.73 18.22 11.2 18.22 11.39 18.72 11.75 18.72 11.75 18.26"
         id="polygon53" />
      <rect
         class="cls-1"
         x="7.99"
         y="18.22"
         width=".5"
         height=".5"
         id="rect53" />
    </g>
  </g>
</g>
</svg>
