<?xml version="1.0" encoding="UTF-8"?>
<svg id="Layer_2" data-name="Layer 2" xmlns="http://www.w3.org/2000/svg" viewBox="0 0 120.4 160.83">
  <defs>
    <style>
      .cls-1 {
        fill: #acb6dd;
      }
    </style>
  </defs>
  <g transform="translate(120.4,160.83) rotate(180)">
  <g id="Duct_Start">
    <path class="cls-1" d="M120.4,2.5V0h-8.61v7.14H10.62V0H0v28.2h10.62v-6.08l39.52,19.08v78.42l-39.52,19.08v-6.08H0v28.2h10.62v-7.14h101.17v7.14h8.61v-2.5h0V2.5h0ZM7.62,25.2H3V3h4.62v22.2ZM7.62,142.38v15.45H3v-22.2h4.62v6.75ZM113.79,150.69H8.61l-.04-7.48v-.19s.04-.02.04-.02v.21h105.17v7.48ZM113.79,142.21H10.26l42.88-20.71V39.32L10.26,18.62h103.53v123.6ZM113.79,17.62H8.62v.21l-.04-.02v-.19s.04-7.48.04-7.48h105.17v7.48ZM119.4,157.83h-4.62V3h4.62v154.83Z"/>
  </g>
</g>
</svg>