<?xml version="1.0" encoding="UTF-8"?>
<svg id="Layer_2" data-name="Layer 2" xmlns="http://www.w3.org/2000/svg" viewBox="0 0 117.41 160.83">
  <defs>
    <style>
      .cls-1 {
        fill: #acb6dd;
      }
    </style>
  </defs>
  <g transform="translate(117.41,160.83) rotate(180)">
  <g id="Duct_End">
    <path class="cls-1" d="M114.91,30h-8.12v5.75L44.26,7.36l-.49-.22H8.62V0H0v2.5h0v155.83h0v2.5h8.62v-7.14h35.15l.49-.22,62.54-28.4v5.76h10.62V30h-2.5ZM5.62,10.14v148.19H1V3h4.62v7.14ZM108.8,120.87l-65.68,29.82H6.62v-7.48h34.71l67.47-30.44v8.1ZM109.09,49.28l-.29-.13v62.53l-67.68,30.53H6.62V18.62h34.5l67.68,30.53v-1.1L41.43,17.66l-.1-.04H6.62v-7.48h36.5l65.68,29.82v8.1l.71.32-.41.91ZM114.41,127.83h-4.62V33h4.62v94.83Z"/>
  </g>
</g>
</svg>