<?xml version="1.0" encoding="UTF-8" standalone="no"?>
<svg
   id="Layer_2"
   data-name="Layer 2"
   viewBox="0 0 199.08 240.28875"
   version="1.1"
   sodipodi:docname="Duct_Tee.svg"
   inkscape:version="1.4.3 (0d15f75, 2025-12-25)"
   width="199.08"
   height="240.28875"
   xmlns:inkscape="http://www.inkscape.org/namespaces/inkscape"
   xmlns:sodipodi="http://sodipodi.sourceforge.net/DTD/sodipodi-0.dtd"
   xmlns="http://www.w3.org/2000/svg"
   xmlns:svg="http://www.w3.org/2000/svg">
  <sodipodi:namedview
     id="namedview1"
     pagecolor="#505050"
     bordercolor="#eeeeee"
     borderopacity="1"
     inkscape:showpageshadow="0"
     inkscape:pageopacity="0"
     inkscape:pagecheckerboard="0"
     inkscape:deskcolor="#505050"
     inkscape:zoom="64"
     inkscape:cx="14.484375"
     inkscape:cy="40.09375"
     inkscape:window-width="3041"
     inkscape:window-height="1553"
     inkscape:window-x="-11"
     inkscape:window-y="-11"
     inkscape:window-maximized="1"
     inkscape:current-layer="Duct_Tee" />
  <defs
     id="defs1">
    <style
       id="style1">
      .cls-1 {
        fill: #acb6dd;
      }
    </style>
  </defs>
  <g transform="translate(199.08,0) rotate(90)">
  <g
     id="Duct_Tee"
     transform="translate(0,-38.24)">
    <path
       class="cls-1"
       d="M 240.24188,38.286875 228.7,38.24 v 7.14 H 191.93 45.38 8.61 V 38.24 H 0 v 160.83 h 8.61 v -7.14 h 36.77 v 36.77 h -7.14 v 8.62 h 160.83 v -8.62 h -7.14 v -36.77 l 39.73875,0.0391 v 7.14 h 8.62 z M 5.61,196.57 H 0.99 V 41.24 h 4.62 z m 1,-7.64 v -7.48 h 49.25 v 49.25 h -7.48 v -41.77 z m 189.46,42.77 v 4.62 H 40.74 V 231.7 Z M 233.66875,188.96906 188.93,188.93 v 41.77 h -7.48 v -49.25 l 52.21875,0.0391 z m -0.0547,-8.53078 h -50.25 v 50.25 L 56.86,230.7 V 180.45 H 6.61 L 6.563125,57.64125 56.7975,57.625625 l 176.82148,-0.02452 -5e-4,122.980257 z M 6.61,48.37 H 230.7 v 7.49 H 6.61 Z m 232.67875,148.23906 h -4.62 l -0.007,-155.366379 4.67395,0.01294 z"
       id="path1"
       sodipodi:nodetypes="cccccccccccccccccccccccccccccccccccccccccccccccccccccccccccccccccccc" />
  </g>
</g>
</svg>
