<?xml version="1.0" encoding="UTF-8" standalone="no"?>
<svg
   version="1.1"
   width="544"
   height="544"
   viewBox="0 0 544.00002 544"
   id="svg2"
   sodipodi:docname="Color logo - no background - no text.svg"
   inkscape:version="1.4 (86a8ad7, 2024-10-11)"
   xmlns:inkscape="http://www.inkscape.org/namespaces/inkscape"
   xmlns:sodipodi="http://sodipodi.sourceforge.net/DTD/sodipodi-0.dtd"
   xmlns="http://www.w3.org/2000/svg"
   xmlns:svg="http://www.w3.org/2000/svg">
  <defs
     id="defs2" />
  <sodipodi:namedview
     id="namedview2"
     pagecolor="#ffffff"
     bordercolor="#000000"
     borderopacity="0.25"
     inkscape:showpageshadow="2"
     inkscape:pageopacity="0.0"
     inkscape:pagecheckerboard="0"
     inkscape:deskcolor="#d1d1d1"
     inkscape:zoom="0.66539825"
     inkscape:cx="1581.7595"
     inkscape:cy="350.91766"
     inkscape:window-width="3840"
     inkscape:window-height="2054"
     inkscape:window-x="-11"
     inkscape:window-y="-11"
     inkscape:window-maximized="1"
     inkscape:current-layer="g2" />
  <g
     transform="matrix(8.1008101,0,0,8.1008101,81.008101,81.008101)"
     id="g2">
    <defs
       id="SvgjsDefs4861" />
    <g
       id="SvgjsG4862"
       featureKey="symbolFeature-0"
       transform="matrix(0.74154814,0,0,0.74154814,-11.903766,-12.094263)"
       fill="#1069c8">
      <path
         d="M 48,3.05 C 23.176,3.05 3.049,23.176 3.049,48.001 3.049,72.826 23.176,92.95 48,92.95 72.826,92.95 92.951,72.826 92.951,48.001 92.951,23.176 72.826,3.05 48,3.05 Z m 15.924,77.262 v -29.15 c 3.885,-1.21 6.705,-4.835 6.705,-9.117 0,-5.273 -4.273,-9.548 -9.547,-9.548 -5.274,0 -9.547,4.274 -9.547,9.548 0,4.282 2.82,7.907 6.705,9.117 v 31.374 c -3.246,0.963 -6.684,1.48 -10.24,1.48 -19.891,0 -36.014,-16.125 -36.014,-36.015 0,-14.174 8.188,-26.434 20.092,-32.311 v 29.15 c -3.885,1.209 -6.707,4.833 -6.707,9.117 0,5.271 4.275,9.547 9.549,9.547 5.271,0 9.547,-4.275 9.547,-9.547 0,-4.284 -2.822,-7.908 -6.707,-9.117 V 13.465 c 3.246,-0.961 6.684,-1.479 10.24,-1.479 19.891,0 36.014,16.124 36.014,36.016 0,14.173 -8.188,26.432 -20.09,32.31 z"
         id="path1" />
    </g>
  </g>
</svg>
