<?xml version="1.0" encoding="UTF-8"?>
<svg id="Layer_2" data-name="Layer 2" xmlns="http://www.w3.org/2000/svg" viewBox="0 0 41.2 78.8">
  <defs>
    <style>
      .cls-1 {
        fill: #acb6dd;
      }
    </style>
  </defs>
  <g id="Duct_Sensor_Wall">
    <g>
      <path class="cls-1" d="M10.78,21.1h19.42v-8.66H10.78v8.66ZM11.78,13.44h17.42v6.66H11.78v-6.66Z"/>
      <path class="cls-1" d="M30.61,0H10.58C4.75,0,0,4.75,0,10.58v20.03c0,4.9,3.35,9.03,7.87,10.23v10.31h12.63v-9.96h2v19.12h2.41v18.49h4v-18.49h2.41v-19.14c5.51-.37,9.87-4.96,9.87-10.56V10.58c0-5.83-4.75-10.58-10.58-10.58ZM28.61,38.2H8.58c-2.2,0-5.58-3.4-5.58-7.58V10.58c0-4.18,3.4-7.58,7.58-7.58h20.03c4.18,0,7.58,3.4,7.58,7.58v20.03c0,4.54-3.85,7.58-9.58,7.58ZM15.6,40.52h-2.82v-1.33h2.82v1.33ZM10.87,41.52h6.63v6.63h-6.63v-6.63ZM25.51,39.2h2.82v18.12h-2.82v-18.12Z"/>
      <circle class="cls-1" cx="7.61" cy="7.82" r="1.38"/>
      <circle class="cls-1" cx="33.68" cy="7.82" r="1.38"/>
      <path class="cls-1" d="M7.61,31.95c-.76,0-1.38.62-1.38,1.38s.62,1.38,1.38,1.38,1.38-.62,1.38-1.38-.62-1.38-1.38-1.38Z"/>
      <path class="cls-1" d="M33.68,31.95c-.76,0-1.38.62-1.38,1.38s.62,1.38,1.38,1.38,1.38-.62,1.38-1.38-.62-1.38-1.38-1.38Z"/>
    </g>
  </g>
</svg>