<?xml version="1.0" encoding="UTF-8"?>
<svg id="Layer_2" data-name="Layer 2" xmlns="http://www.w3.org/2000/svg" viewBox="0 0 80.26 60.24">
  <defs>
    <style>
      .cls-1 {
        fill: #acb6dd;
      }
    </style>
  </defs>
  <g id="Pipe_Tri">
    <path class="cls-1" d="M12.03,6.61V2.5s0-2.5,0-2.5H0v40.21h12.03v-6.6h14.6v14.6h-4.1s-2.5,0-2.5,0v12.03h40.21v-12.03h-2.5s-4.11,0-4.11,0v-14.6h14.6v4.1s0,2.5,0,2.5h12.03V0h-12.03v2.5s0,4.11,0,4.11M9.03,37.21H1v-4.12h8.03v4.12ZM9.03,8.61v23.49H1V8.12h8.03v.49ZM9.03,7.12H1V3h8.03v4.12ZM27.14,59.24h-4.12v-8.03h4.12v8.03ZM52.12,59.24h-23.98v-8.03h23.98v8.03ZM57.24,51.2v8.03h-4.12v-8.03h4.12ZM70.23,9.61v21h-19.6v19.6h-21v-19.6H10.03V9.61h60.2ZM79.26,37.21h-8.03v-4.12h8.03v4.12ZM79.26,32.09h-8.03V8.12h8.03v23.98ZM79.26,7.12h-8.03V3h8.03v4.12Z"/>
  </g>
</svg>