<?xml version="1.0" encoding="UTF-8"?>
<svg id="Layer_2" data-name="Layer 2" xmlns="http://www.w3.org/2000/svg" viewBox="0 0 105.1 99.2">
  <defs>
    <style>
      .cls-1 {
        fill: #acb6dd;
      }
    </style>
  </defs>
  <g id="Pipe_Valve_Isolation">
    <path class="cls-1" d="M68.23,92.59v4.1s0,2.5,0,2.5h12.03v-40.21h-12.02v6.61h-14.65v-10.7h5.65v-23.3h-7.7v-6.39h.6l.75-.92,8.13-9.96h44.08V4.33h-48.82l-.75.92-7.04,8.62V0h-16.7v15.2h-4.77v10h1.71v6.39h-7.7v23.3h5.65v10.7h-14.65v-6.61H0v40.21h12.03v-6.6M9.03,96.2H1v-4.12h8.03v4.12ZM9.03,67.59v23.49H1v-23.98h8.03v.49ZM9.03,66.11H1v-4.12h8.03v4.12ZM71.23,61.99h8.03v4.12h-8.03v-4.12ZM71.23,90.59v-23.49h8.03v23.98h-8.03v-.49ZM71.23,92.08h8.03v4.12h-8.03v-4.12ZM34.78,3h10.7v10.7h-10.7V3ZM42.75,14.7v2.5h-5.24v-2.5h5.24ZM10.03,89.59v-21h19.6v-13.7h21v13.7h19.6v21H10.03ZM27.14,51.89h-3.12v-8.03h32.21v8.03h-29.09ZM27.14,42.62h-3.12v-8.03h32.21v8.03h-29.09ZM42.75,27.7h5.78v5.89h-16.81v-5.89h11.02ZM37.51,26.7v-3.5h5.24v3.5h-5.24ZM102.1,11.33h-42.5l-8.88,10.88h-20.7v-4h18.8l8.88-10.88h44.4v4Z"/>
  </g>
</svg>