<?xml version="1.0" encoding="UTF-8" standalone="no"?>
<svg
   id="Layer_2"
   data-name="Layer 2"
   viewBox="0 0 40.21 124.6"
   version="1.1"
   sodipodi:docname="Pipe_Mini_Vertical.svg"
   width="40.209999"
   height="124.6"
   inkscape:version="1.4 (86a8ad7, 2024-10-11)"
   xmlns:inkscape="http://www.inkscape.org/namespaces/inkscape"
   xmlns:sodipodi="http://sodipodi.sourceforge.net/DTD/sodipodi-0.dtd"
   xmlns="http://www.w3.org/2000/svg"
   xmlns:svg="http://www.w3.org/2000/svg">
  <sodipodi:namedview
     id="namedview1"
     pagecolor="#ffffff"
     bordercolor="#000000"
     borderopacity="0.25"
     inkscape:showpageshadow="2"
     inkscape:pageopacity="0.0"
     inkscape:pagecheckerboard="0"
     inkscape:deskcolor="#d1d1d1"
     inkscape:zoom="28.764045"
     inkscape:cx="20.111914"
     inkscape:cy="62.317382"
     inkscape:window-width="3840"
     inkscape:window-height="2054"
     inkscape:window-x="-11"
     inkscape:window-y="-11"
     inkscape:window-maximized="1"
     inkscape:current-layer="Layer_2" />
  <defs
     id="defs1">
    <style
       id="style1">
      .cls-1 {
        fill: #acb6dd;
      }
    </style>
  </defs>
  <g
     id="Pipe_Mini"
     transform="rotate(90,20.105,20.105)">
    <path
       class="cls-1"
       d="m 124.1,0 h -11.53 v 2.5 c 0,0 0,4.11 0,4.11 H 12.03 V 2.5 c 0,0 0,-2.5 0,-2.5 H 0 v 40.21 h 12.03 v -6.6 h 100.54 v 4.1 c 0,0 0,2.5 0,2.5 H 124.6 V 0 Z M 1,3 H 9.03 V 7.12 H 1 Z M 1,8.12 H 9.03 V 32.1 H 1 Z M 9.03,37.21 H 1 v -4.12 h 8.03 z m 105.54,-6.6 H 10.03 v -21 h 104.54 z m 9.03,6.6 h -8.03 v -4.12 h 8.03 z m 0,-5.12 h -8.03 V 8.12 h 8.03 V 32.1 Z m 0,-24.97 h -8.03 V 3 h 8.03 z"
       id="path1" />
  </g>
</svg>
