<?xml version="1.0" encoding="UTF-8"?>
<svg id="Layer_2" data-name="Layer 2" xmlns="http://www.w3.org/2000/svg" viewBox="0 0 84.46 130.15">
  <defs>
    <style>
      .cls-1 {
        fill: #acb6dd;
      }
    </style>
  </defs>
  <g id="Pipe_Valve_Modulating">
    <g>
      <path class="cls-1" d="M24.23,6.32c-.99,0-1.8.81-1.8,1.8s.81,1.8,1.8,1.8,1.8-.81,1.8-1.8-.81-1.8-1.8-1.8Z"/>
      <path class="cls-1" d="M56.98,6.32c-.99,0-1.8.81-1.8,1.8s.81,1.8,1.8,1.8,1.8-.81,1.8-1.8-.81-1.8-1.8-1.8Z"/>
      <g>
        <path class="cls-1" d="M24.23,27.57c-.99,0-1.8.81-1.8,1.8s.81,1.8,1.8,1.8,1.8-.81,1.8-1.8-.81-1.8-1.8-1.8Z"/>
        <path class="cls-1" d="M56.98,31.17c.99,0,1.8-.81,1.8-1.8s-.81-1.8-1.8-1.8-1.8.81-1.8,1.8.81,1.8,1.8,1.8Z"/>
        <path class="cls-1" d="M72.99,0H26.75c-6.32,0-11.47,5.14-11.47,11.47v20.47c0,2.43,1.85,4.45,4.22,4.7v5.04h4.51v30.96h-2.99v13.2h5.65v10.7h-14.65v-6.61H0v40.21h12.03v-6.6h56.2v4.1s0,2.5,0,2.5h12.03v-40.21h-12.02v6.61h-14.66v-10.7h5.65v-13.21h-3.17v-30.96h4.51v-5h19.16c2.6,0,4.72-2.12,4.72-4.72V11.47c0-6.32-5.15-11.47-11.47-11.47ZM9.03,127.15H1v-4.12h8.03v4.12ZM9.03,98.54v23.49H1v-23.98h8.03v.49ZM9.03,97.05H1v-4.12h8.03v4.12ZM71.23,92.94h8.03v4.12h-8.03v-4.12ZM71.23,121.54v-23.49h8.03v23.98h-8.03v-.49ZM71.23,123.03h8.03v4.12h-8.03v-4.12ZM26.75,2.5c-.62,0-1.22.06-1.81.18.58-.12,1.19-.18,1.81-.18ZM40.58,56.81h3.15v1.35h-7.37v-1.35h4.22ZM39.51,55.81v-16.13h1.07v16.13h-1.07ZM50.43,73.48v-33.8h2.64v33.8h-2.64ZM41.58,55.81v-14.16h5.88v30.99h-1.51v-2.39h-4.37v-8.73h3.15v-5.71h-3.15ZM35.14,73.48v-2.23h9.81v2.23h-9.81ZM43.73,60.52h-7.37v-1.35h7.37v1.35ZM35.36,55.81v5.71h3.15v8.73h1v-8.73h1.07v8.73h-1.07v.5h-1v-.5h-4.37v2.39h-1.51v-30.99h5.88v14.16h-3.15ZM29.66,73.48h-2.64v-33.8h2.64v33.8ZM53.63,99.54h16.6v21H10.03v-21h19.6v-13.7h21v13.7h3ZM56.24,82.84H24.03v-8.03h32.21v8.03ZM57.58,38.68H22.51v-4h35.07v4ZM61.23,33.67H20c-.95-.01-1.72-.79-1.72-1.73V11.47c0-4.67,3.8-8.47,8.47-8.47h34.47v30.67ZM81.46,31.95c0,.95-.77,1.72-1.72,1.72h-17.51V3h10.76c4.67,0,8.47,3.8,8.47,8.47v20.48Z"/>
      </g>
    </g>
  </g>
</svg>