<?xml version="1.0" encoding="UTF-8"?>
<svg id="Layer_2" data-name="Layer 2" xmlns="http://www.w3.org/2000/svg" viewBox="0 0 265.11 130.09">
  <defs>
    <style>
      .cls-1 {
        fill: #acb6dd;
      }
    </style>
  </defs>
  <g id="Pipe_Pump">
    <g>
      <path class="cls-1" d="M34.01,55.64h50.58v-5.7h-50.58v5.7ZM35.01,50.94h48.58v3.7h-48.58v-3.7Z"/>
      <path class="cls-1" d="M264.61,32.58h-11.53v2.5s0,4.11,0,4.11h-2.62l-3.46-3.6v-10.33l-.39-.61-2.48-3.92-.23-.52v-8.17h4.11s2.5,0,2.5,0V0h-40.21v12.03h2.5s4.11,0,4.11,0v4.85l.03,5.17h-5.83v5.69h-24.97v4.94h-33.78v1.52h-3.2v-3.94s-.01-2.5-.01-2.5h-47.94l-.7-1.75v-.04l-.03-.19c-.41-2.7-2.34-4.17-4.19-4.89v-.93h-1.58v-3.81h-1.22v-.78h-10.31v.38H17.67l-.38.12c-1.12.37-10.28,3.47-14.16,7.94H0v57.85h3.13c3.88,4.47,13.03,7.65,14.14,8.02l.39.13h2.63v8.06h-2.38v32.22h240.73v-32.22h-2.51v-4.86h-2.63v-4.14l-.67-.72-6.52-7,.68-.68v-10.69l3.46-3.6h2.62v4.11s0,2.5,0,2.5h12.03v-40.21h-.5ZM3.88,78.66h-.88V26.81h.88v51.85ZM243.39,1h4.12v8.03h-4.12V1ZM242.41,23.63l1.59,2.5v53.09l-1.37,1.37h-.22V23.63ZM218.41,1h23.98v8.03h-23.98V1ZM225.6,16.31h-5.7v-6.28h21v10.2h-2.54v-3.92h-12.76ZM237.36,17.31v70.17h-11.76V17.31h11.76ZM219.9,24.05v-6.73h4.69v70.17h-4.69v-6.44h.05V24.05h-.05ZM238.36,21.23h3.06v63.37h-3.06V21.23ZM213.29,9.03V1h4.12v8.03h-4.12ZM214.1,31.68v-6.63h4.8v55.01h-4.8V31.68ZM194.14,34.55h18.96v25.65h-18.96v-25.65ZM213.1,61.2v14.25h-23.56v-14.25h23.56ZM213.1,31.68v1.87h-18.96v-1.87h18.96ZM155.35,36.19v-.52h33.78v-4.94h4.02v29.46h-4.6v8.49h-33.19v-32.5ZM151.82,37.19h2.53v30.63h-2.53v-30.63ZM149.21,56.21v-12.71l1.61-1v20.54l-1.61-.82v-6.01ZM151.32,70.83h1.03v.86h34.19v6.77h24.56v4.6h5.83l-.03,4.92-.02,2.52h4.98v2.52h-2.28v4.86h-49.34v-4.65h-21l-.04-22.39h2.11ZM151.27,96.22h15.98v3.65h-15.98v-3.65ZM148.21,50.04v5.17h-1.03v-5.17s1.03,0,1.03,0ZM146.14,30.76l.03,18.74v6.71h.01l.07,43.66h-43.93l-.07-42.58v-10.34h-.02l-.03-16.2h43.93ZM99.3,85.49h-4.61v-.34h1.58v-.88c1.09-.42,2.2-1.1,3.02-2.15v3.37ZM99.93,56.83v-8.88h1.31v8.88s-1.31,0-1.31,0ZM98.93,30.19v45.05l-.44,1.11V29.08s.44,1.11.44,1.11ZM94.27,23.43c.97.2,2.92.84,3.22,2.73v52.77c-.29,1.95-2.25,2.6-3.22,2.81V23.43ZM91.47,19.15h.22v2.81h-.22v-2.81ZM93.27,22.96v59.19h-4.6V22.96h4.6ZM91.69,83.15v2.84h-.22v-2.84h.22ZM90.47,83.15v3.62h-4.31v-2.76h2.51v-.86h1.8ZM86.16,18.37h4.31v3.6h-1.8v-.71h-2.51v-2.89ZM85.67,22.26h2v60.75h-2V22.26ZM98.78,88.49v11.38H23.29v-11.38h75.49ZM83.59,84.01v3.48h-48.58v-3.48h48.58ZM35.01,83.01v-5.11h48.58v5.11h-48.58ZM85.16,87.49h-.57v-3.48h.57v3.48ZM33.93,18.74h50.74v15.37h-50.74v-15.37ZM83.91,35.11v.15h-49.47v-.15h49.47ZM33.93,36.26h50.74v1.85h-50.74v-1.85ZM83.91,39.11v.15h-49.47v-.15h49.47ZM33.93,40.26h50.74v1.85h-50.74v-1.85ZM83.91,43.1v.15h-49.47v-.15h49.47ZM33.93,44.25h50.74v1.85h-50.74v-1.85ZM83.91,47.1v.15h-49.47v-.15h49.47ZM33.93,48.25h50.74v9.06h-50.74v-9.06ZM83.91,58.31v.15h-49.47v-.15h49.47ZM33.93,59.46h50.74v1.85h-50.74v-1.85ZM83.91,62.3v.15h-49.47v-.15h49.47ZM33.93,63.45h50.74v1.85h-50.74v-1.85ZM83.91,66.3v.15h-49.47v-.15h49.47ZM33.93,67.45h50.74v1.85h-50.74v-1.85ZM83.91,70.3v.15h-49.47v-.15h49.47ZM33.93,71.45h50.74v11.57h-.07v-6.11h-50.58v6.11h-.08v-11.57ZM33.93,84.01h.08v3.48h-.08v-3.48ZM17.57,18.95v67.65c-2.36-.86-10.38-4-12.69-7.6V26.55c2.31-3.6,10.33-6.74,12.69-7.6ZM18.57,86.81V18.74h14.36v68.07h-14.36ZM255.65,122.07H20.91v-16.19h234.73v16.19ZM255.65,127.09H20.91v-4.02h234.73v4.02ZM254.14,100.87h1.51v4.02H20.91v-4.02h233.22ZM253.14,96.01v3.86h-30.56v-3.86h30.56ZM250.51,95.01h-25.65v-4.08h25.65v4.08ZM250.39,89.93h-25.14l.87-1.44h12.24v-2.89h4.06v-4.01h.21l7.77,8.34ZM248.9,63.48l-3.9,4.05v-29.7l3.9,4.05v21.6ZM255.08,63.18h-5.18v-21h5.18v21ZM264.11,69.79h-8.03v-4.12h8.03v4.12ZM264.11,64.67h-8.03v-23.98h8.03v23.98ZM264.11,39.7h-8.03v-4.12h8.03v4.12Z"/>
    </g>
  </g>
</svg>