<?xml version="1.0" encoding="UTF-8" standalone="no"?>
<svg
   id="Layer_2"
   data-name="Layer 2"
   viewBox="0 0 130.14 84.450001"
   version="1.1"
   sodipodi:docname="Pipe_Valve_Modulating_Vertical.svg"
   width="130.14"
   height="84.449997"
   inkscape:version="1.4 (86a8ad7, 2024-10-11)"
   xmlns:inkscape="http://www.inkscape.org/namespaces/inkscape"
   xmlns:sodipodi="http://sodipodi.sourceforge.net/DTD/sodipodi-0.dtd"
   xmlns="http://www.w3.org/2000/svg"
   xmlns:svg="http://www.w3.org/2000/svg">
  <sodipodi:namedview
     id="namedview6"
     pagecolor="#ffffff"
     bordercolor="#000000"
     borderopacity="0.25"
     inkscape:showpageshadow="2"
     inkscape:pageopacity="0.0"
     inkscape:pagecheckerboard="0"
     inkscape:deskcolor="#d1d1d1"
     inkscape:zoom="13.945448"
     inkscape:cx="65.074997"
     inkscape:cy="42.20015"
     inkscape:window-width="3840"
     inkscape:window-height="2054"
     inkscape:window-x="-11"
     inkscape:window-y="-11"
     inkscape:window-maximized="1"
     inkscape:current-layer="Layer_2" />
  <defs
     id="defs1">
    <style
       id="style1">
      .cls-1 {
        fill: #acb6dd;
      }
    </style>
  </defs>
  <g
     id="Pipe_Valve_Modulating"
     transform="rotate(90,65.07,65.07)">
    <g
       id="g6">
      <path
         class="cls-1"
         d="m 24.23,6.32 c -0.99,0 -1.8,0.81 -1.8,1.8 0,0.99 0.81,1.8 1.8,1.8 0.99,0 1.8,-0.81 1.8,-1.8 0,-0.99 -0.81,-1.8 -1.8,-1.8 z"
         id="path1" />
      <path
         class="cls-1"
         d="m 56.98,6.32 c -0.99,0 -1.8,0.81 -1.8,1.8 0,0.99 0.81,1.8 1.8,1.8 0.99,0 1.8,-0.81 1.8,-1.8 0,-0.99 -0.81,-1.8 -1.8,-1.8 z"
         id="path2" />
      <g
         id="g5">
        <path
           class="cls-1"
           d="m 24.23,27.57 c -0.99,0 -1.8,0.81 -1.8,1.8 0,0.99 0.81,1.8 1.8,1.8 0.99,0 1.8,-0.81 1.8,-1.8 0,-0.99 -0.81,-1.8 -1.8,-1.8 z"
           id="path3" />
        <path
           class="cls-1"
           d="m 56.98,31.17 c 0.99,0 1.8,-0.81 1.8,-1.8 0,-0.99 -0.81,-1.8 -1.8,-1.8 -0.99,0 -1.8,0.81 -1.8,1.8 0,0.99 0.81,1.8 1.8,1.8 z"
           id="path4" />
        <path
           class="cls-1"
           d="M 72.99,0 H 26.75 C 20.43,0 15.28,5.14 15.28,11.47 v 20.47 c 0,2.43 1.85,4.45 4.22,4.7 v 5.04 h 4.51 v 30.96 h -2.99 v 13.2 h 5.65 v 10.7 H 12.02 V 89.93 H 0 v 40.21 h 12.03 v -6.6 h 56.2 v 4.1 c 0,0 0,2.5 0,2.5 H 80.26 V 89.93 H 68.24 v 6.61 H 53.58 v -10.7 h 5.65 V 72.63 H 56.06 V 41.67 h 4.51 v -5 h 19.16 c 2.6,0 4.72,-2.12 4.72,-4.72 V 11.47 C 84.45,5.15 79.3,0 72.98,0 Z M 9.03,127.15 H 1 v -4.12 h 8.03 z m 0,-28.61 v 23.49 H 1 V 98.05 h 8.03 z m 0,-1.49 H 1 v -4.12 h 8.03 z m 62.2,-4.11 h 8.03 v 4.12 h -8.03 z m 0,28.6 V 98.05 h 8.03 v 23.98 h -8.03 z m 0,1.49 h 8.03 v 4.12 H 71.23 Z M 26.75,2.5 c -0.62,0 -1.22,0.06 -1.81,0.18 0.58,-0.12 1.19,-0.18 1.81,-0.18 z m 13.83,54.31 h 3.15 v 1.35 h -7.37 v -1.35 z m -1.07,-1 V 39.68 h 1.07 v 16.13 z m 10.92,17.67 v -33.8 h 2.64 v 33.8 z M 41.58,55.81 V 41.65 h 5.88 v 30.99 h -1.51 v -2.39 h -4.37 v -8.73 h 3.15 v -5.71 z m -6.44,17.67 v -2.23 h 9.81 v 2.23 z m 8.59,-12.96 h -7.37 v -1.35 h 7.37 z m -8.37,-4.71 v 5.71 h 3.15 v 8.73 h 1 v -8.73 h 1.07 v 8.73 h -1.07 v 0.5 h -1 v -0.5 h -4.37 v 2.39 H 32.63 V 41.65 h 5.88 v 14.16 z m -5.7,17.67 h -2.64 v -33.8 h 2.64 z m 23.97,26.06 h 16.6 v 21 h -60.2 v -21 h 19.6 v -13.7 h 21 v 13.7 z m 2.61,-16.7 H 24.03 V 74.81 H 56.24 Z M 57.58,38.68 H 22.51 v -4 h 35.07 z m 3.65,-5.01 H 20 C 19.05,33.66 18.28,32.88 18.28,31.94 V 11.47 C 18.28,6.8 22.08,3 26.75,3 h 34.47 v 30.67 z m 20.23,-1.72 c 0,0.95 -0.77,1.72 -1.72,1.72 H 62.23 V 3 h 10.76 c 4.67,0 8.47,3.8 8.47,8.47 z"
           id="path5" />
      </g>
    </g>
  </g>
</svg>
