<?xml version="1.0" encoding="UTF-8" standalone="no"?>
<svg
   id="Layer_2"
   data-name="Layer 2"
   viewBox="0 0 265.11 130.09"
   version="1.1"
   sodipodi:docname="Pipe_Pump.svg"
   inkscape:version="1.4 (86a8ad7, 2024-10-11)"
   xmlns:inkscape="http://www.inkscape.org/namespaces/inkscape"
   xmlns:sodipodi="http://sodipodi.sourceforge.net/DTD/sodipodi-0.dtd"
   xmlns="http://www.w3.org/2000/svg"
   xmlns:svg="http://www.w3.org/2000/svg">
  <sodipodi:namedview
     id="namedview2"
     pagecolor="#ffffff"
     bordercolor="#000000"
     borderopacity="0.25"
     inkscape:showpageshadow="2"
     inkscape:pageopacity="0.0"
     inkscape:pagecheckerboard="0"
     inkscape:deskcolor="#d1d1d1"
     inkscape:zoom="13.632078"
     inkscape:cx="132.51831"
     inkscape:cy="65.030438"
     inkscape:window-width="3840"
     inkscape:window-height="2054"
     inkscape:window-x="-11"
     inkscape:window-y="-11"
     inkscape:window-maximized="1"
     inkscape:current-layer="Layer_2" />
  <defs
     id="defs1">
    <style
       id="style1">
      .cls-1 {
        fill: #acb6dd;
      }
    </style>
  </defs>
  <g
     id="Pipe_Pump"
     transform="matrix(-1,0,0,1,265.1,0)">
    <g
       id="g2">
      <path
         class="cls-1"
         d="m 34.01,55.64 h 50.58 v -5.7 H 34.01 Z m 1,-4.7 h 48.58 v 3.7 H 35.01 Z"
         id="path1" />
      <path
         class="cls-1"
         d="m 264.61,32.58 h -11.53 v 2.5 c 0,0 0,4.11 0,4.11 h -2.62 L 247,35.59 V 25.26 l -0.39,-0.61 -2.48,-3.92 -0.23,-0.52 v -8.17 h 4.11 c 0,0 2.5,0 2.5,0 V 0 H 210.3 v 12.03 h 2.5 c 0,0 4.11,0 4.11,0 v 4.85 l 0.03,5.17 h -5.83 v 5.69 h -24.97 v 4.94 h -33.78 v 1.52 h -3.2 v -3.94 c 0,0 -0.01,-2.5 -0.01,-2.5 h -47.94 l -0.7,-1.75 v -0.04 l -0.03,-0.19 c -0.41,-2.7 -2.34,-4.17 -4.19,-4.89 V 19.96 H 94.71 V 16.15 H 93.49 V 15.37 H 83.18 v 0.38 H 17.67 l -0.38,0.12 C 16.17,16.24 7.01,19.34 3.13,23.81 H 0 v 57.85 h 3.13 c 3.88,4.47 13.03,7.65 14.14,8.02 l 0.39,0.13 h 2.63 v 8.06 h -2.38 v 32.22 H 258.64 V 97.87 h -2.51 v -4.86 h -2.63 v -4.14 l -0.67,-0.72 -6.52,-7 0.68,-0.68 V 69.78 l 3.46,-3.6 h 2.62 v 4.11 c 0,0 0,2.5 0,2.5 H 265.1 V 32.58 h -0.5 z M 3.88,78.66 H 3 V 26.81 H 3.88 Z M 243.39,1 h 4.12 v 8.03 h -4.12 z m -0.98,22.63 1.59,2.5 v 53.09 l -1.37,1.37 h -0.22 z M 218.41,1 h 23.98 v 8.03 h -23.98 z m 7.19,15.31 h -5.7 v -6.28 h 21 v 10.2 h -2.54 v -3.92 z m 11.76,1 V 87.48 H 225.6 V 17.31 Z m -17.46,6.74 v -6.73 h 4.69 v 70.17 h -4.69 v -6.44 h 0.05 v -57 z m 18.46,-2.82 h 3.06 V 84.6 h -3.06 z M 213.29,9.03 V 1 h 4.12 v 8.03 z m 0.81,22.65 v -6.63 h 4.8 v 55.01 h -4.8 z m -19.96,2.87 H 213.1 V 60.2 H 194.14 Z M 213.1,61.2 V 75.45 H 189.54 V 61.2 Z m 0,-29.52 v 1.87 h -18.96 v -1.87 z m -57.75,4.51 v -0.52 h 33.78 v -4.94 h 4.02 v 29.46 h -4.6 v 8.49 h -33.19 v -32.5 z m -3.53,1 h 2.53 v 30.63 h -2.53 z m -2.61,19.02 V 43.5 l 1.61,-1 v 20.54 l -1.61,-0.82 z m 2.11,14.62 h 1.03 v 0.86 h 34.19 v 6.77 h 24.56 v 4.6 h 5.83 l -0.03,4.92 -0.02,2.52 h 4.98 v 2.52 h -2.28 v 4.86 h -49.34 v -4.65 h -21 L 149.2,70.84 h 2.11 z m -0.05,25.39 h 15.98 v 3.65 h -15.98 z m -3.06,-46.18 v 5.17 h -1.03 v -5.17 z m -2.07,-19.28 0.03,18.74 v 6.71 h 0.01 l 0.07,43.66 H 102.32 L 102.25,57.29 V 46.95 h -0.02 l -0.03,-16.2 h 43.93 z M 99.3,85.49 h -4.61 v -0.34 h 1.58 v -0.88 c 1.09,-0.42 2.2,-1.1 3.02,-2.15 v 3.37 z m 0.63,-28.66 v -8.88 h 1.31 v 8.88 z m -1,-26.64 v 45.05 l -0.44,1.11 V 29.08 c 0,0 0.44,1.11 0.44,1.11 z m -4.66,-6.76 c 0.97,0.2 2.92,0.84 3.22,2.73 v 52.77 c -0.29,1.95 -2.25,2.6 -3.22,2.81 z m -2.8,-4.28 h 0.22 v 2.81 h -0.22 z m 1.8,3.81 v 59.19 h -4.6 V 22.96 Z m -1.58,60.19 v 2.84 h -0.22 v -2.84 z m -1.22,0 v 3.62 h -4.31 v -2.76 h 2.51 V 83.15 Z M 86.16,18.37 h 4.31 v 3.6 h -1.8 v -0.71 h -2.51 z m -0.49,3.89 h 2 v 60.75 h -2 z M 98.78,88.49 V 99.87 H 23.29 V 88.49 Z M 83.59,84.01 v 3.48 H 35.01 v -3.48 z m -48.58,-1 V 77.9 h 48.58 v 5.11 z m 50.15,4.48 h -0.57 v -3.48 h 0.57 z M 33.93,18.74 H 84.67 V 34.11 H 33.93 Z m 49.98,16.37 v 0.15 H 34.44 v -0.15 z m -49.98,1.15 h 50.74 v 1.85 H 33.93 Z m 49.98,2.85 v 0.15 H 34.44 v -0.15 z m -49.98,1.15 h 50.74 v 1.85 H 33.93 Z m 49.98,2.84 v 0.15 H 34.44 V 43.1 Z M 33.93,44.25 H 84.67 V 46.1 H 33.93 Z m 49.98,2.85 v 0.15 H 34.44 V 47.1 Z m -49.98,1.15 h 50.74 v 9.06 H 33.93 Z m 49.98,10.06 v 0.15 H 34.44 v -0.15 z m -49.98,1.15 h 50.74 v 1.85 H 33.93 Z m 49.98,2.84 v 0.15 H 34.44 V 62.3 Z M 33.93,63.45 H 84.67 V 65.3 H 33.93 Z m 49.98,2.85 v 0.15 H 34.44 V 66.3 Z M 33.93,67.45 H 84.67 V 69.3 H 33.93 Z m 49.98,2.85 v 0.15 H 34.44 V 70.3 Z M 33.93,71.45 H 84.67 V 83.02 H 84.6 V 76.91 H 34.02 v 6.11 H 33.94 V 71.45 Z m 0,12.56 h 0.08 v 3.48 H 33.93 Z M 17.57,18.95 V 86.6 C 15.21,85.74 7.19,82.6 4.88,79 V 26.55 c 2.31,-3.6 10.33,-6.74 12.69,-7.6 z m 1,67.86 V 18.74 h 14.36 v 68.07 z m 237.08,35.26 H 20.91 v -16.19 h 234.73 v 16.19 z m 0,5.02 H 20.91 v -4.02 h 234.73 v 4.02 z m -1.51,-26.22 h 1.51 v 4.02 H 20.91 v -4.02 h 233.22 z m -1,-4.86 v 3.86 h -30.56 v -3.86 z m -2.63,-1 h -25.65 v -4.08 h 25.65 z m -0.12,-5.08 h -25.14 l 0.87,-1.44 h 12.24 V 85.6 h 4.06 v -4.01 h 0.21 l 7.77,8.34 z M 248.9,63.48 245,67.53 v -29.7 l 3.9,4.05 z m 6.18,-0.3 h -5.18 v -21 h 5.18 z m 9.03,6.61 h -8.03 v -4.12 h 8.03 z m 0,-5.12 h -8.03 V 40.69 h 8.03 z m 0,-24.97 h -8.03 v -4.12 h 8.03 z"
         id="path2" />
    </g>
  </g>
</svg>
